<svg width="444" height="428" viewBox="0 0 444 428" fill="none" xmlns="http://www.w3.org/2000/svg">
<g filter="url(#filter0_d_875_696)">
<path d="M40.7516 341.708C41.2042 341.698 41.6448 341.598 42.0272 341.419L378.16 198.449C379.538 197.781 380.686 196.887 381.514 195.837C382.341 194.787 382.826 193.61 382.928 192.398V5.49635C382.928 4.18218 382.183 3.40234 380.966 3.40234C380.271 3.41635 379.594 3.56586 379.003 3.83559L42.8514 146.748C41.4729 147.419 40.3247 148.316 39.4971 149.368C38.6696 150.421 38.1854 151.6 38.0826 152.814V338.733C38.0641 339.49 38.351 340.234 38.9069 340.871C39.0955 341.112 39.363 341.315 39.6851 341.461C40.0072 341.608 40.3737 341.693 40.7516 341.708Z" fill="#F5F7FA"/>
<path d="M32.8034 339.282C33.3725 339.499 37.4152 341.189 39.1814 341.94C38.532 341.555 38.0156 341.063 37.6745 340.503C37.3334 339.943 37.1773 339.332 37.219 338.719V165.277L30.5662 162.389V335.932C30.5077 336.586 30.6835 337.239 31.0762 337.827C31.4688 338.415 32.0644 338.917 32.8034 339.282Z" fill="#F5F7FA"/>
<path d="M380.927 4.05092C381.908 4.05092 382.045 4.94629 382.045 5.49506V192.382C381.943 193.481 381.501 194.548 380.753 195.501C380.005 196.455 378.97 197.27 377.728 197.884L41.5955 340.855C41.341 340.97 41.0503 341.035 40.7517 341.043C39.8293 341.043 39.0247 339.988 39.0247 338.775V152.769C39.1162 151.669 39.5539 150.599 40.3031 149.644C41.0523 148.689 42.0927 147.876 43.3421 147.267L379.474 4.39751C379.909 4.19001 380.41 4.07046 380.927 4.05092ZM380.927 2.76562C380.105 2.78195 379.305 2.9616 378.611 3.28552L42.459 146.141C40.949 146.869 39.6932 147.848 38.7931 149C37.893 150.151 37.374 151.443 37.2781 152.769V338.732C37.2781 340.653 38.7303 342.299 40.7517 342.299C41.3627 342.291 41.9594 342.161 42.4786 341.924L378.591 198.953C380.109 198.232 381.374 197.257 382.281 196.107C383.188 194.958 383.713 193.666 383.812 192.339V5.49506C383.812 3.76209 382.634 2.76562 380.927 2.76562Z" fill="#E0E0E0"/>
<path d="M383.794 5.40698V18.2166L37.2805 165.52L30.6277 162.631V150.038C30.7017 148.685 31.2419 147.368 32.1977 146.211C33.0692 145.072 34.3181 144.113 35.8282 143.424L371.961 0.511316C372.504 0.223534 373.144 0.0499871 373.811 0.00928264C374.478 -0.0314218 375.148 0.0622505 375.748 0.280253C376.71 0.713497 381.263 2.61977 382.185 2.96636C382.331 3.01682 382.463 3.0852 382.578 3.16855C382.735 3.25398 382.874 3.3562 382.99 3.47182C383.123 3.59068 383.235 3.72173 383.323 3.86174C383.444 4.00373 383.53 4.1601 383.578 4.32386C383.653 4.49301 383.706 4.66712 383.735 4.84376C383.777 5.02986 383.797 5.21833 383.794 5.40698Z" fill="#006D6C"/>
<path opacity="0.15" d="M383.794 5.40698V18.2166L37.2805 165.52L30.6277 162.631V150.038C30.7017 148.685 31.2419 147.368 32.1977 146.211C33.0692 145.072 34.3181 144.113 35.8282 143.424L371.961 0.511316C372.504 0.223534 373.144 0.0499871 373.811 0.00928264C374.478 -0.0314218 375.148 0.0622505 375.748 0.280253C376.71 0.713497 381.263 2.61977 382.185 2.96636C382.331 3.01682 382.463 3.0852 382.578 3.16855C382.735 3.25398 382.874 3.3562 382.99 3.47182C383.123 3.59068 383.235 3.72173 383.323 3.86174C383.444 4.00373 383.53 4.1601 383.578 4.32386C383.653 4.49301 383.706 4.66712 383.735 4.84376C383.777 5.02986 383.797 5.21833 383.794 5.40698Z" fill="#103E13"/>
<path d="M383.792 5.40474V18.2143L37.2781 165.517V152.867C37.2924 152.051 37.5051 151.244 37.9061 150.484C37.9645 150.35 38.0367 150.22 38.1219 150.094C38.3255 149.736 38.5616 149.389 38.8284 149.054C39.6951 147.9 40.9525 146.93 42.4786 146.238L378.591 3.28185C379.152 2.97147 379.828 2.79415 380.529 2.77352C381.23 2.75288 381.924 2.88989 382.516 3.16632C382.673 3.25175 382.812 3.35397 382.928 3.46959C383.062 3.58845 383.174 3.7195 383.262 3.85951C383.383 4.00149 383.469 4.15787 383.517 4.32163C383.592 4.49078 383.645 4.66489 383.674 4.84153C383.736 5.02632 383.775 5.21481 383.792 5.40474Z" fill="#006D6C"/>
<path d="M348.997 20.7613C347.966 21.3643 347.138 22.1339 346.577 23.0104C346.015 23.887 345.735 24.8469 345.759 25.8158C345.759 27.852 347.211 28.8774 348.997 28.112C350.028 27.509 350.856 26.7394 351.418 25.8628C351.979 24.9863 352.259 24.0264 352.235 23.0575C352.137 21.1079 350.685 19.9959 348.997 20.7613Z" fill="#F5F7FA"/>
<path d="M360.575 15.7907C359.542 16.3922 358.712 17.1615 358.151 18.0384C357.589 18.9153 357.311 19.8759 357.337 20.8452C357.337 22.867 358.79 23.9068 360.575 23.1414C361.611 22.5406 362.444 21.7718 363.009 20.895C363.574 20.0182 363.856 19.0571 363.833 18.0869C363.833 16.0506 362.381 15.0253 360.575 15.7907Z" fill="#F5F7FA"/>
<path d="M372.272 10.8103C371.236 11.4111 370.403 12.1799 369.838 13.0567C369.273 13.9335 368.991 14.8946 369.014 15.8649C369.014 17.9011 370.466 18.9264 372.272 18.1755C373.302 17.5717 374.129 16.802 374.691 15.9256C375.252 15.0493 375.532 14.0897 375.51 13.121C375.51 11.0847 374.058 10.0594 372.272 10.8103Z" fill="#F5F7FA"/>
<path d="M378.611 3.28408L42.4786 146.139C40.9418 146.857 39.6788 147.851 38.8087 149.027L32.2148 146.139C33.0675 144.99 34.312 144.025 35.8258 143.337L371.958 0.511316C372.502 0.223534 373.141 0.0499871 373.808 0.00928264C374.476 -0.0314218 375.145 0.0622505 375.746 0.280253C376.668 0.699056 380.986 2.50423 382.085 2.93748C381.51 2.78503 380.895 2.73693 380.29 2.79728C379.685 2.85762 379.109 3.02463 378.611 3.28408Z" fill="#006D6C"/>
<g opacity="0.5">
<path opacity="0.5" d="M378.611 3.28408L42.4786 146.139C40.9418 146.857 39.6788 147.851 38.8087 149.027L32.2148 146.139C33.0675 144.99 34.312 144.025 35.8258 143.337L371.958 0.511316C372.502 0.223534 373.141 0.0499871 373.808 0.00928264C374.476 -0.0314218 375.145 0.0622505 375.746 0.280253C376.668 0.699056 380.986 2.50423 382.085 2.93748C381.51 2.78503 380.895 2.73693 380.29 2.79728C379.685 2.85762 379.109 3.02463 378.611 3.28408Z" fill="white"/>
</g>
<path d="M121.351 171.642C121.226 171.642 121.106 171.605 121.018 171.54C120.929 171.475 120.88 171.387 120.88 171.295V156.724C120.88 156.632 120.929 156.543 121.018 156.478C121.106 156.413 121.226 156.377 121.351 156.377C121.412 156.377 121.472 156.386 121.528 156.404C121.584 156.421 121.635 156.447 121.677 156.479C121.719 156.512 121.752 156.55 121.774 156.592C121.795 156.634 121.805 156.679 121.802 156.724V171.295C121.805 171.34 121.795 171.385 121.774 171.427C121.752 171.469 121.719 171.507 121.677 171.539C121.635 171.572 121.584 171.597 121.528 171.615C121.472 171.633 121.412 171.642 121.351 171.642Z" fill="#455A64"/>
<path d="M119.683 169.926L121.273 171.096L122.843 169.926V170.922L121.273 172.078L119.683 170.922V169.926Z" fill="#455A64"/>
<path d="M138.092 173.232C138.007 173.236 137.923 173.221 137.85 173.191C137.777 173.16 137.718 173.114 137.679 173.059C137.648 173.02 137.628 172.977 137.62 172.933C137.613 172.888 137.617 172.843 137.634 172.8C137.65 172.757 137.678 172.716 137.717 172.681C137.755 172.646 137.802 172.618 137.856 172.596L150.887 167.051C150.941 167.028 151.001 167.013 151.063 167.007C151.124 167.001 151.187 167.004 151.248 167.016C151.308 167.028 151.364 167.049 151.414 167.077C151.463 167.106 151.504 167.141 151.534 167.181C151.592 167.26 151.605 167.352 151.573 167.438C151.54 167.524 151.463 167.598 151.358 167.643L138.307 173.189C138.243 173.218 138.168 173.233 138.092 173.232Z" fill="#455A64"/>
<path d="M150.298 169.048L150.887 167.459L148.728 167.026L149.886 166.535L152.044 166.954L151.475 168.543L150.298 169.048Z" fill="#455A64"/>
<path d="M135.677 249.791C135.593 249.795 135.509 249.781 135.436 249.75C135.363 249.719 135.303 249.673 135.265 249.618C135.234 249.579 135.214 249.537 135.206 249.492C135.198 249.448 135.203 249.402 135.219 249.359C135.236 249.316 135.264 249.276 135.302 249.241C135.34 249.206 135.388 249.177 135.442 249.156L148.473 243.61C148.583 243.567 148.711 243.557 148.831 243.581C148.952 243.605 149.055 243.662 149.12 243.74C149.174 243.822 149.186 243.915 149.153 244.003C149.121 244.091 149.046 244.167 148.944 244.217L135.893 249.748C135.828 249.778 135.753 249.793 135.677 249.791Z" fill="#455A64"/>
<path d="M147.884 245.601L148.473 244.012L146.314 243.593L147.472 243.088L149.631 243.521L149.061 245.11L147.884 245.601Z" fill="#455A64"/>
<path d="M182.992 229.683C182.911 229.684 182.831 229.668 182.762 229.637C182.692 229.607 182.636 229.562 182.599 229.509C182.565 229.471 182.543 229.428 182.533 229.383C182.524 229.338 182.527 229.292 182.544 229.249C182.561 229.205 182.59 229.164 182.63 229.129C182.67 229.095 182.72 229.067 182.776 229.047L195.807 223.502C195.858 223.477 195.917 223.46 195.978 223.453C196.039 223.446 196.101 223.449 196.161 223.461C196.221 223.473 196.276 223.495 196.323 223.524C196.37 223.554 196.408 223.59 196.435 223.632C196.466 223.669 196.488 223.711 196.497 223.755C196.506 223.799 196.503 223.844 196.489 223.887C196.474 223.93 196.448 223.971 196.412 224.006C196.375 224.042 196.33 224.071 196.278 224.094L183.227 229.639C183.155 229.669 183.074 229.683 182.992 229.683Z" fill="#455A64"/>
<path d="M195.219 225.501L195.807 223.913L193.649 223.479L194.807 222.988L196.965 223.407L196.376 224.996L195.219 225.501Z" fill="#455A64"/>
<path d="M186.112 152.858C186.032 152.859 185.952 152.843 185.882 152.813C185.813 152.782 185.757 152.738 185.72 152.685C185.688 152.647 185.667 152.605 185.658 152.561C185.648 152.517 185.651 152.472 185.666 152.429C185.68 152.386 185.707 152.346 185.743 152.31C185.779 152.275 185.825 152.245 185.877 152.223L198.927 146.677C198.98 146.654 199.038 146.639 199.099 146.634C199.159 146.628 199.22 146.631 199.279 146.643C199.338 146.655 199.393 146.676 199.44 146.704C199.488 146.732 199.527 146.767 199.555 146.807C199.587 146.845 199.608 146.887 199.618 146.931C199.627 146.975 199.624 147.019 199.61 147.062C199.595 147.106 199.569 147.146 199.532 147.182C199.496 147.217 199.451 147.247 199.398 147.269L186.348 152.815C186.275 152.842 186.194 152.857 186.112 152.858Z" fill="#455A64"/>
<path d="M198.26 148.669L198.849 147.08L196.69 146.647L197.848 146.156L200.007 146.575L199.418 148.178L198.26 148.669Z" fill="#455A64"/>
<path d="M185.189 191.356C185.108 191.358 185.027 191.344 184.955 191.316C184.883 191.289 184.821 191.247 184.777 191.197C184.746 191.157 184.725 191.113 184.717 191.068C184.709 191.022 184.714 190.976 184.73 190.932C184.746 190.887 184.775 190.846 184.813 190.809C184.852 190.773 184.899 190.743 184.954 190.72L197.985 185.175C198.094 185.129 198.224 185.117 198.345 185.141C198.467 185.166 198.57 185.224 198.632 185.305C198.695 185.385 198.711 185.481 198.678 185.57C198.645 185.659 198.565 185.736 198.456 185.781L185.405 191.313C185.341 191.342 185.266 191.357 185.189 191.356Z" fill="#455A64"/>
<path d="M185.995 189.336L185.426 190.924L187.584 191.343L186.427 191.834L184.268 191.416L184.837 189.827L185.995 189.336Z" fill="#455A64"/>
<path d="M184.347 262.957C184.266 262.958 184.186 262.942 184.117 262.912C184.047 262.881 183.991 262.837 183.954 262.784C183.909 262.744 183.878 262.696 183.863 262.646C183.849 262.595 183.851 262.542 183.87 262.493C183.89 262.443 183.925 262.397 183.974 262.36C184.023 262.322 184.083 262.294 184.15 262.278L196.318 257.094C196.425 257.051 196.55 257.041 196.667 257.066C196.784 257.09 196.884 257.147 196.946 257.224C196.978 257.261 196.999 257.303 197.008 257.347C197.017 257.391 197.015 257.436 197 257.479C196.985 257.522 196.959 257.563 196.923 257.598C196.886 257.634 196.841 257.663 196.789 257.686L184.602 262.87C184.529 262.915 184.441 262.945 184.347 262.957Z" fill="#455A64"/>
<path d="M185.171 260.924L184.582 262.512L186.741 262.946L185.583 263.437L183.424 263.003L184.013 261.415L185.171 260.924Z" fill="#455A64"/>
<path d="M138.307 211.273C138.226 211.274 138.146 211.258 138.077 211.227C138.007 211.197 137.951 211.152 137.914 211.099C137.882 211.062 137.861 211.02 137.852 210.976C137.843 210.932 137.845 210.887 137.86 210.844C137.875 210.801 137.901 210.76 137.937 210.725C137.973 210.689 138.019 210.66 138.071 210.637L151.122 205.092C151.229 205.05 151.354 205.04 151.471 205.064C151.588 205.088 151.688 205.145 151.75 205.222C151.781 205.261 151.801 205.305 151.809 205.351C151.818 205.397 151.813 205.443 151.797 205.487C151.78 205.532 151.752 205.573 151.714 205.609C151.675 205.646 151.627 205.676 151.573 205.698L138.542 211.229L138.307 211.273Z" fill="#455A64"/>
<path d="M139.131 209.248L138.542 210.837L140.701 211.255L139.543 211.746L137.385 211.328L137.973 209.739L139.131 209.248Z" fill="#455A64"/>
<path d="M212.488 165.869C212.363 165.869 212.243 165.832 212.155 165.767C212.067 165.702 212.017 165.614 212.017 165.522V154.417C212.017 154.325 212.067 154.237 212.155 154.172C212.243 154.107 212.363 154.07 212.488 154.07C212.613 154.07 212.733 154.107 212.821 154.172C212.909 154.237 212.959 154.325 212.959 154.417V165.522C212.959 165.614 212.909 165.702 212.821 165.767C212.733 165.832 212.613 165.869 212.488 165.869Z" fill="#455A64"/>
<path d="M210.918 164.164L212.488 165.319L214.078 164.164V165.146L212.488 166.301L210.918 165.146V164.164Z" fill="#455A64"/>
<path d="M121.351 236.83C121.274 236.847 121.192 236.847 121.115 236.83C121.043 236.803 120.983 236.762 120.941 236.711C120.9 236.66 120.878 236.601 120.88 236.542V228.368C120.88 228.276 120.93 228.188 121.018 228.123C121.106 228.058 121.226 228.021 121.351 228.021C121.412 228.021 121.472 228.03 121.528 228.048C121.584 228.065 121.635 228.091 121.677 228.123C121.719 228.156 121.752 228.194 121.774 228.236C121.795 228.278 121.805 228.323 121.802 228.368V235.935L212.076 197.578V192.495C212.076 192.403 212.126 192.315 212.214 192.25C212.302 192.185 212.422 192.148 212.547 192.148C212.672 192.148 212.792 192.185 212.88 192.25C212.968 192.315 213.018 192.403 213.018 192.495V197.781C213.015 197.84 212.992 197.897 212.951 197.947C212.91 197.998 212.852 198.04 212.783 198.069L121.547 236.83C121.483 236.843 121.415 236.843 121.351 236.83Z" fill="#455A64"/>
<path d="M122.843 229.683L121.273 228.528L119.683 229.683V228.701L121.273 227.531L122.843 228.701V229.683Z" fill="#455A64"/>
<path d="M121.351 274.742C121.274 274.759 121.192 274.759 121.115 274.742C121.04 274.714 120.978 274.671 120.936 274.617C120.894 274.563 120.875 274.501 120.88 274.439V269.168C120.88 269.076 120.93 268.988 121.018 268.923C121.106 268.858 121.226 268.821 121.351 268.821C121.412 268.821 121.472 268.83 121.528 268.848C121.584 268.866 121.635 268.891 121.677 268.924C121.719 268.956 121.752 268.994 121.774 269.036C121.795 269.078 121.805 269.123 121.802 269.168V273.833L212.076 235.476V227.475C212.076 227.384 212.126 227.295 212.214 227.23C212.302 227.165 212.422 227.129 212.547 227.129C212.672 227.129 212.792 227.165 212.88 227.23C212.968 227.295 213.018 227.384 213.018 227.475V235.649C213.015 235.708 212.992 235.766 212.951 235.816C212.91 235.867 212.852 235.909 212.783 235.938L121.488 274.699C121.447 274.72 121.4 274.735 121.351 274.742Z" fill="#455A64"/>
<path d="M214.078 228.833L212.488 227.677L210.918 228.833V227.851L212.488 226.695L214.078 227.851V228.833Z" fill="#455A64"/>
<path d="M100.391 264.777C100.314 264.79 100.233 264.79 100.156 264.777C100.084 264.747 100.024 264.702 99.9825 264.649C99.9411 264.596 99.9197 264.535 99.9204 264.474V227.042C99.9231 226.983 99.9461 226.925 99.9873 226.875C100.029 226.824 100.087 226.782 100.156 226.753L105.101 224.645C105.193 224.614 105.297 224.605 105.396 224.621C105.495 224.637 105.584 224.675 105.651 224.731C105.682 224.771 105.703 224.815 105.711 224.86C105.719 224.906 105.715 224.952 105.698 224.997C105.682 225.041 105.653 225.083 105.615 225.119C105.577 225.155 105.529 225.185 105.474 225.208L100.784 227.201V263.795L105.965 261.6C106.018 261.567 106.08 261.542 106.147 261.528C106.215 261.514 106.285 261.512 106.354 261.521C106.423 261.529 106.489 261.549 106.546 261.579C106.603 261.609 106.65 261.648 106.684 261.692C106.718 261.737 106.739 261.787 106.743 261.839C106.748 261.89 106.737 261.941 106.712 261.989C106.686 262.037 106.646 262.08 106.595 262.115C106.544 262.15 106.483 262.177 106.416 262.192L100.529 264.691C100.49 264.725 100.444 264.755 100.391 264.777Z" fill="#455A64"/>
<path d="M105.455 263.634L106.024 262.045L103.865 261.612L105.043 261.121L107.182 261.554L106.613 263.128L105.455 263.634Z" fill="#455A64"/>
<path d="M230.17 243.504C230.089 243.505 230.009 243.489 229.94 243.459C229.871 243.428 229.814 243.384 229.778 243.33C229.746 243.291 229.726 243.247 229.718 243.201C229.71 243.156 229.714 243.109 229.73 243.065C229.747 243.021 229.775 242.979 229.813 242.943C229.852 242.907 229.9 242.876 229.954 242.854L234.86 240.774V207.703L230.621 209.494C230.57 209.517 230.513 209.533 230.453 209.54C230.394 209.547 230.333 209.545 230.274 209.534C230.216 209.523 230.161 209.504 230.112 209.477C230.064 209.451 230.024 209.417 229.993 209.379C229.961 209.34 229.94 209.297 229.93 209.252C229.921 209.207 229.923 209.161 229.938 209.116C229.952 209.072 229.979 209.03 230.015 208.994C230.052 208.957 230.098 208.926 230.15 208.902L235.096 206.808C235.168 206.779 235.249 206.764 235.331 206.764C235.414 206.764 235.495 206.779 235.567 206.808C235.635 206.84 235.691 206.885 235.729 206.939C235.767 206.992 235.785 207.051 235.783 207.111V240.962C235.784 241.02 235.765 241.077 235.727 241.128C235.689 241.178 235.634 241.221 235.567 241.251L230.406 243.504C230.328 243.518 230.247 243.518 230.17 243.504Z" fill="#455A64"/>
<path d="M230.995 241.453L230.426 243.042L232.584 243.46L231.407 243.966L229.248 243.533L229.837 241.944L230.995 241.453Z" fill="#455A64"/>
<path d="M135.343 141.708C135.343 145.592 129.044 151.412 121.272 154.705C113.501 157.998 107.182 157.593 107.182 153.651C107.182 149.708 113.481 143.946 121.272 140.653C129.063 137.361 135.343 137.823 135.343 141.708Z" fill="#006D6C"/>
<path d="M172.504 274.222C179.759 269.753 183.391 264.151 180.615 261.711C177.84 259.271 169.708 260.915 162.452 265.384C155.196 269.854 151.564 275.455 154.34 277.895C157.116 280.335 165.248 278.691 172.504 274.222Z" fill="#006D6C"/>
<path d="M134.087 180.814L108.438 191.703C107.673 192.021 107.064 191.703 107.064 190.923V181.204C107.07 180.823 107.198 180.448 107.436 180.109C107.675 179.771 108.018 179.478 108.438 179.255L134.087 168.409C134.853 168.091 135.461 168.409 135.461 169.189V178.894C135.448 179.27 135.317 179.639 135.078 179.972C134.84 180.305 134.501 180.593 134.087 180.814Z" fill="#006D6C"/>
<path opacity="0.6" d="M134.087 180.814L108.438 191.703C107.673 192.021 107.064 191.703 107.064 190.923V181.204C107.07 180.823 107.198 180.448 107.436 180.109C107.675 179.771 108.018 179.478 108.438 179.255L134.087 168.409C134.853 168.091 135.461 168.409 135.461 169.189V178.894C135.448 179.27 135.317 179.639 135.078 179.972C134.84 180.305 134.501 180.593 134.087 180.814Z" fill="white"/>
<path d="M180.226 161.188L154.713 172.063C153.948 172.395 153.32 172.063 153.32 171.297V161.578C153.328 161.196 153.459 160.82 153.701 160.481C153.943 160.142 154.29 159.85 154.713 159.629L180.226 148.74C180.991 148.408 181.619 148.74 181.619 149.505V159.224C181.614 159.609 181.485 159.988 181.243 160.329C181 160.671 180.652 160.965 180.226 161.188Z" fill="#006D6C"/>
<path opacity="0.6" d="M180.226 161.188L154.713 172.063C153.948 172.395 153.32 172.063 153.32 171.297V161.578C153.328 161.196 153.459 160.82 153.701 160.481C153.943 160.142 154.29 159.85 154.713 159.629L180.226 148.74C180.991 148.408 181.619 148.74 181.619 149.505V159.224C181.614 159.609 181.485 159.988 181.243 160.329C181 160.671 180.652 160.965 180.226 161.188Z" fill="white"/>
<path d="M180.226 199.318L154.713 210.207C153.948 210.539 153.32 210.207 153.32 209.442V199.723C153.33 199.34 153.461 198.965 153.703 198.626C153.945 198.288 154.291 197.996 154.713 197.773L180.226 186.884C180.991 186.552 181.619 186.884 181.619 187.65V197.369C181.611 197.751 181.48 198.127 181.238 198.466C180.996 198.805 180.649 199.097 180.226 199.318Z" fill="#006D6C"/>
<path opacity="0.6" d="M180.226 199.318L154.713 210.207C153.948 210.539 153.32 210.207 153.32 209.442V199.723C153.33 199.34 153.461 198.965 153.703 198.626C153.945 198.288 154.291 197.996 154.713 197.773L180.226 186.884C180.991 186.552 181.619 186.884 181.619 187.65V197.369C181.611 197.751 181.48 198.127 181.238 198.466C180.996 198.805 180.649 199.097 180.226 199.318Z" fill="white"/>
<path d="M180.226 236.715L154.713 247.604C153.948 247.922 153.32 247.604 153.32 246.824V237.105C153.33 236.723 153.461 236.347 153.703 236.009C153.945 235.67 154.291 235.378 154.713 235.155L180.226 224.267C180.991 223.949 181.619 224.267 181.619 225.046V234.751C181.611 235.136 181.48 235.514 181.238 235.855C180.996 236.195 180.65 236.49 180.226 236.715Z" fill="#006D6C"/>
<path opacity="0.6" d="M180.226 236.715L154.713 247.604C153.948 247.922 153.32 247.604 153.32 246.824V237.105C153.33 236.723 153.461 236.347 153.703 236.009C153.945 235.67 154.291 235.378 154.713 235.155L180.226 224.267C180.991 223.949 181.619 224.267 181.619 225.046V234.751C181.611 235.136 181.48 235.514 181.238 235.855C180.996 236.195 180.65 236.49 180.226 236.715Z" fill="white"/>
<path d="M225.362 217.582L199.732 228.471C198.967 228.803 198.339 228.471 198.339 227.706V217.986C198.349 217.604 198.48 217.229 198.722 216.89C198.964 216.552 199.31 216.259 199.732 216.037L225.362 205.148C226.127 204.816 226.756 205.148 226.756 205.913V215.632C226.747 216.015 226.617 216.391 226.375 216.73C226.133 217.068 225.786 217.36 225.362 217.582Z" fill="#006D6C"/>
<path opacity="0.6" d="M225.362 217.582L199.732 228.471C198.967 228.803 198.339 228.471 198.339 227.706V217.986C198.349 217.604 198.48 217.229 198.722 216.89C198.964 216.552 199.31 216.259 199.732 216.037L225.362 205.148C226.127 204.816 226.756 205.148 226.756 205.913V215.632C226.747 216.015 226.617 216.391 226.375 216.73C226.133 217.068 225.786 217.36 225.362 217.582Z" fill="white"/>
<path d="M225.362 251.434L199.673 262.279C198.908 262.611 198.28 262.279 198.28 261.514V251.795C198.288 251.412 198.419 251.036 198.661 250.698C198.903 250.359 199.249 250.067 199.673 249.845L225.362 239C226.127 238.667 226.755 239 226.755 239.765V249.484C226.745 249.866 226.614 250.242 226.372 250.58C226.13 250.919 225.784 251.211 225.362 251.434Z" fill="#006D6C"/>
<path opacity="0.6" d="M225.362 251.434L199.673 262.279C198.908 262.611 198.28 262.279 198.28 261.514V251.795C198.288 251.412 198.419 251.036 198.661 250.698C198.903 250.359 199.249 250.067 199.673 249.845L225.362 239C226.127 238.667 226.755 239 226.755 239.765V249.484C226.745 249.866 226.614 250.242 226.372 250.58C226.13 250.919 225.784 251.211 225.362 251.434Z" fill="white"/>
<path d="M134.087 218.959L108.438 229.848C107.673 230.18 107.064 229.848 107.064 229.068V219.364C107.07 218.98 107.198 218.603 107.436 218.262C107.674 217.921 108.017 217.626 108.438 217.4L134.087 206.511C134.853 206.193 135.461 206.511 135.461 207.291V217.01C135.455 217.391 135.328 217.766 135.089 218.105C134.851 218.443 134.507 218.736 134.087 218.959Z" fill="#006D6C"/>
<path opacity="0.6" d="M134.087 218.959L108.438 229.848C107.673 230.18 107.064 229.848 107.064 229.068V219.364C107.07 218.98 107.198 218.603 107.436 218.262C107.674 217.921 108.017 217.626 108.438 217.4L134.087 206.511C134.853 206.193 135.461 206.511 135.461 207.291V217.01C135.455 217.391 135.328 217.766 135.089 218.105C134.851 218.443 134.507 218.736 134.087 218.959Z" fill="white"/>
<path d="M211.192 151.465L200.36 140.331C200.019 139.713 199.96 139.031 200.194 138.387C200.428 137.743 200.941 137.173 201.655 136.764L223.242 127.564C224.616 126.972 225.381 128.431 224.537 130.019L213.704 150.367C213.135 151.609 211.86 152.144 211.192 151.465Z" fill="#455A64"/>
<path d="M223.517 176.219L213.47 188.971C212.881 189.708 212.096 190.054 211.507 189.809L201.459 185.592C200.576 185.216 200.576 183.729 201.459 182.602L211.507 169.865C212.096 169.129 212.881 168.782 213.47 169.027L223.517 173.244C224.401 173.605 224.401 175.107 223.517 176.219Z" fill="#C8E6C9"/>
<path d="M132.281 252.373L122.253 265.168C121.664 265.905 120.86 266.252 120.291 266.006L110.243 261.789C109.36 261.428 109.36 259.926 110.243 258.8L120.291 246.062C120.86 245.326 121.664 244.979 122.253 245.225L132.281 249.442C133.125 249.759 133.125 251.261 132.281 252.373Z" fill="#C8E6C9"/>
<path d="M83.259 207.4C83.1781 207.4 83.0985 207.385 83.0269 207.358C82.9552 207.33 82.8935 207.29 82.8469 207.242C82.7885 207.16 82.7743 207.066 82.8071 206.978C82.8399 206.889 82.9173 206.813 83.0235 206.765L113.285 193.912C113.338 193.888 113.396 193.873 113.457 193.865C113.519 193.858 113.581 193.86 113.641 193.871C113.701 193.882 113.758 193.901 113.808 193.928C113.858 193.955 113.9 193.989 113.932 194.028C113.991 194.109 114.005 194.203 113.972 194.292C113.939 194.38 113.862 194.456 113.756 194.504L83.4945 207.4C83.417 207.413 83.3365 207.413 83.259 207.4Z" fill="#455A64"/>
<path d="M83.2592 210.691C83.1762 210.69 83.0949 210.674 83.0228 210.644C82.9507 210.613 82.8903 210.57 82.8471 210.518C82.7898 210.439 82.7762 210.347 82.8091 210.261C82.842 210.175 82.9189 210.101 83.0237 210.056L113.285 197.188C113.395 197.146 113.524 197.135 113.644 197.159C113.764 197.183 113.867 197.24 113.933 197.318C113.99 197.397 114.004 197.49 113.971 197.576C113.938 197.662 113.861 197.735 113.756 197.781L83.4947 210.648C83.4218 210.676 83.3412 210.69 83.2592 210.691Z" fill="#E0E0E0"/>
<path d="M83.259 213.929C83.1767 213.925 83.0966 213.908 83.0251 213.878C82.9535 213.848 82.8925 213.806 82.8469 213.755C82.7885 213.674 82.7743 213.58 82.8071 213.491C82.8399 213.403 82.9173 213.327 83.0235 213.279L113.285 200.426C113.339 200.403 113.399 200.388 113.46 200.382C113.522 200.376 113.585 200.379 113.646 200.391C113.706 200.403 113.762 200.424 113.812 200.452C113.861 200.481 113.902 200.516 113.932 200.556C113.99 200.635 114.003 200.727 113.97 200.813C113.938 200.899 113.861 200.973 113.756 201.018L83.4945 213.885L83.259 213.929Z" fill="#E0E0E0"/>
<path d="M83.259 217.148C83.1781 217.148 83.0985 217.133 83.0269 217.106C82.9552 217.078 82.8935 217.038 82.8469 216.99C82.7885 216.909 82.7743 216.814 82.8071 216.726C82.8399 216.637 82.9173 216.561 83.0235 216.513L113.285 203.66C113.338 203.636 113.396 203.621 113.457 203.614C113.519 203.607 113.581 203.608 113.641 203.619C113.701 203.63 113.758 203.649 113.808 203.676C113.858 203.703 113.9 203.737 113.932 203.776C113.991 203.857 114.005 203.951 113.972 204.04C113.939 204.128 113.862 204.204 113.756 204.252L83.4945 217.105C83.4216 217.133 83.341 217.148 83.259 217.148Z" fill="#E0E0E0"/>
<path d="M69.9539 169.667C69.873 169.669 69.7933 169.653 69.7239 169.622C69.6545 169.592 69.5982 169.547 69.5614 169.494C69.5292 169.455 69.5076 169.412 69.4981 169.367C69.4885 169.322 69.4911 169.276 69.5057 169.232C69.5203 169.188 69.5466 169.146 69.5831 169.109C69.6196 169.072 69.6656 169.041 69.7184 169.018L99.9993 156.165C100.103 156.141 100.214 156.143 100.315 156.173C100.416 156.202 100.5 156.256 100.553 156.325C100.606 156.395 100.625 156.476 100.606 156.555C100.587 156.633 100.533 156.705 100.451 156.757L70.1894 169.624C70.1165 169.652 70.0359 169.667 69.9539 169.667Z" fill="#455A64"/>
<path d="M69.9539 172.886C69.8753 172.887 69.7978 172.873 69.729 172.845C69.6601 172.817 69.6024 172.776 69.5614 172.727C69.5292 172.688 69.5076 172.645 69.4981 172.6C69.4885 172.555 69.4911 172.509 69.5057 172.465C69.5203 172.42 69.5466 172.379 69.5831 172.342C69.6196 172.305 69.6656 172.274 69.7184 172.25L99.9994 159.397C100.051 159.374 100.108 159.358 100.167 159.352C100.227 159.345 100.288 159.347 100.347 159.358C100.405 159.368 100.46 159.388 100.508 159.414C100.557 159.441 100.597 159.475 100.627 159.513C100.659 159.553 100.679 159.597 100.687 159.642C100.695 159.688 100.691 159.734 100.675 159.778C100.658 159.823 100.63 159.864 100.591 159.901C100.553 159.937 100.505 159.967 100.451 159.99L70.1894 172.842C70.1165 172.87 70.0359 172.885 69.9539 172.886Z" fill="#E0E0E0"/>
<path d="M69.9536 176.123C69.8726 176.124 69.7929 176.108 69.7235 176.078C69.6541 176.047 69.5978 176.003 69.5611 175.95C69.5293 175.912 69.5081 175.87 69.4988 175.826C69.4895 175.782 69.4922 175.737 69.5069 175.694C69.5215 175.651 69.5478 175.611 69.584 175.575C69.6203 175.54 69.6659 175.51 69.7181 175.488L99.999 162.635C100.106 162.592 100.231 162.582 100.349 162.607C100.466 162.631 100.565 162.688 100.627 162.765C100.658 162.803 100.678 162.846 100.686 162.891C100.694 162.935 100.689 162.98 100.673 163.023C100.656 163.067 100.628 163.107 100.59 163.142C100.552 163.177 100.504 163.206 100.45 163.227L70.1891 176.094C70.1146 176.117 70.034 176.127 69.9536 176.123Z" fill="#E0E0E0"/>
<path d="M69.9539 179.356C69.8489 179.357 69.7462 179.332 69.6624 179.286C69.5786 179.239 69.5183 179.173 69.4912 179.098C69.4642 179.024 69.4718 178.944 69.513 178.873C69.5542 178.802 69.6265 178.743 69.7184 178.706L99.9994 165.853C100.052 165.83 100.11 165.815 100.171 165.809C100.231 165.804 100.292 165.807 100.351 165.819C100.41 165.831 100.465 165.852 100.512 165.88C100.559 165.908 100.599 165.943 100.627 165.983C100.658 166.021 100.678 166.064 100.686 166.109C100.694 166.153 100.69 166.198 100.673 166.242C100.657 166.285 100.628 166.325 100.59 166.36C100.552 166.395 100.505 166.424 100.451 166.445L70.1894 179.312L69.9539 179.356Z" fill="#E0E0E0"/>
<path d="M152.338 177.723C152.233 177.724 152.13 177.699 152.046 177.653C151.963 177.606 151.902 177.54 151.875 177.466C151.848 177.391 151.856 177.312 151.897 177.24C151.938 177.169 152.011 177.11 152.102 177.073L182.383 164.22C182.436 164.197 182.494 164.182 182.555 164.177C182.615 164.171 182.676 164.174 182.735 164.186C182.794 164.198 182.849 164.219 182.896 164.247C182.944 164.275 182.983 164.31 183.011 164.35C183.042 164.389 183.063 164.431 183.07 164.476C183.078 164.52 183.074 164.566 183.057 164.609C183.041 164.652 183.013 164.692 182.974 164.727C182.936 164.762 182.889 164.791 182.835 164.812L152.573 177.665C152.506 177.703 152.423 177.724 152.338 177.723Z" fill="#455A64"/>
<path d="M152.339 180.947C152.258 180.948 152.178 180.932 152.109 180.902C152.039 180.871 151.983 180.826 151.946 180.773C151.914 180.736 151.893 180.694 151.884 180.65C151.875 180.606 151.877 180.561 151.892 180.518C151.907 180.475 151.933 180.434 151.969 180.399C152.005 180.363 152.051 180.334 152.103 180.311L182.384 167.444C182.492 167.407 182.616 167.402 182.729 167.43C182.842 167.457 182.937 167.515 182.994 167.592C183.052 167.669 183.067 167.759 183.038 167.844C183.008 167.929 182.936 168.003 182.835 168.05L152.574 180.903L152.339 180.947Z" fill="#E0E0E0"/>
<path d="M152.339 184.182C152.258 184.183 152.178 184.168 152.109 184.137C152.039 184.107 151.983 184.062 151.946 184.009C151.914 183.971 151.893 183.929 151.884 183.885C151.875 183.841 151.877 183.797 151.892 183.754C151.907 183.711 151.933 183.67 151.969 183.635C152.005 183.599 152.051 183.569 152.103 183.547L182.384 170.68C182.491 170.637 182.617 170.627 182.734 170.652C182.851 170.676 182.95 170.732 183.012 170.81C183.043 170.848 183.063 170.891 183.071 170.936C183.079 170.98 183.074 171.025 183.058 171.068C183.041 171.112 183.013 171.152 182.975 171.187C182.937 171.222 182.889 171.251 182.835 171.272L152.574 184.139C152.501 184.167 152.421 184.182 152.339 184.182Z" fill="#E0E0E0"/>
<path d="M152.338 187.412C152.233 187.413 152.13 187.389 152.046 187.342C151.963 187.295 151.902 187.229 151.875 187.155C151.848 187.08 151.856 187.001 151.897 186.93C151.938 186.858 152.011 186.799 152.102 186.762L182.383 173.909C182.435 173.886 182.492 173.87 182.552 173.863C182.611 173.856 182.672 173.859 182.731 173.869C182.789 173.88 182.844 173.899 182.892 173.926C182.941 173.953 182.981 173.986 183.011 174.025C183.043 174.064 183.063 174.108 183.071 174.154C183.079 174.2 183.075 174.246 183.059 174.29C183.042 174.335 183.014 174.376 182.976 174.412C182.937 174.449 182.889 174.479 182.835 174.501L152.573 187.354C152.506 187.393 152.423 187.413 152.338 187.412Z" fill="#E0E0E0"/>
<path d="M196.121 122.485C196.04 122.486 195.96 122.471 195.891 122.44C195.821 122.409 195.765 122.365 195.728 122.312C195.694 122.274 195.672 122.231 195.662 122.186C195.653 122.141 195.657 122.095 195.673 122.051C195.69 122.007 195.719 121.967 195.759 121.932C195.799 121.897 195.849 121.869 195.905 121.85L226.166 108.982C226.274 108.94 226.399 108.93 226.516 108.954C226.633 108.979 226.733 109.035 226.794 109.112C226.826 109.15 226.847 109.192 226.857 109.236C226.866 109.28 226.863 109.325 226.848 109.368C226.834 109.411 226.808 109.451 226.771 109.487C226.735 109.522 226.689 109.552 226.637 109.574L196.356 122.442C196.284 122.471 196.203 122.486 196.121 122.485Z" fill="#455A64"/>
<path d="M196.122 125.722C196.042 125.72 195.964 125.703 195.895 125.673C195.826 125.643 195.769 125.6 195.729 125.549C195.673 125.468 195.663 125.375 195.699 125.289C195.736 125.202 195.817 125.13 195.925 125.087L226.187 112.234C226.238 112.209 226.297 112.192 226.358 112.185C226.419 112.178 226.481 112.181 226.541 112.194C226.601 112.206 226.656 112.227 226.703 112.257C226.75 112.286 226.788 112.323 226.815 112.364C226.847 112.402 226.868 112.444 226.877 112.488C226.886 112.532 226.884 112.576 226.869 112.619C226.854 112.663 226.828 112.703 226.792 112.738C226.755 112.774 226.71 112.804 226.658 112.826L196.377 125.679C196.34 125.698 196.299 125.712 196.255 125.72C196.211 125.727 196.166 125.728 196.122 125.722Z" fill="#E0E0E0"/>
<path d="M196.121 128.942C196.04 128.944 195.96 128.928 195.891 128.897C195.822 128.867 195.765 128.822 195.728 128.769C195.697 128.731 195.677 128.688 195.67 128.643C195.662 128.599 195.666 128.553 195.683 128.51C195.699 128.467 195.727 128.427 195.766 128.392C195.804 128.357 195.851 128.328 195.905 128.307L226.166 115.454C226.218 115.431 226.275 115.415 226.335 115.408C226.394 115.401 226.455 115.403 226.514 115.414C226.572 115.425 226.627 115.444 226.675 115.471C226.724 115.498 226.764 115.531 226.794 115.57C226.827 115.608 226.848 115.652 226.858 115.697C226.867 115.742 226.865 115.788 226.85 115.832C226.836 115.876 226.809 115.918 226.773 115.955C226.736 115.991 226.69 116.022 226.637 116.046L196.356 128.899C196.284 128.928 196.203 128.943 196.121 128.942Z" fill="#E0E0E0"/>
<path d="M196.121 132.178C196.04 132.18 195.96 132.164 195.891 132.133C195.821 132.103 195.765 132.058 195.728 132.005C195.694 131.967 195.672 131.924 195.662 131.879C195.653 131.834 195.657 131.788 195.673 131.744C195.69 131.701 195.719 131.66 195.759 131.625C195.799 131.59 195.849 131.562 195.905 131.543L226.166 118.676C226.274 118.634 226.399 118.623 226.516 118.648C226.633 118.672 226.733 118.729 226.794 118.806C226.826 118.843 226.847 118.885 226.857 118.929C226.866 118.973 226.863 119.018 226.848 119.061C226.834 119.104 226.808 119.145 226.771 119.18C226.735 119.216 226.689 119.245 226.637 119.268L196.356 132.135C196.284 132.164 196.203 132.179 196.121 132.178Z" fill="#E0E0E0"/>
<path d="M224.165 158.65C224.084 158.651 224.004 158.636 223.935 158.605C223.865 158.575 223.809 158.53 223.772 158.477C223.738 158.439 223.716 158.396 223.706 158.351C223.697 158.306 223.7 158.26 223.717 158.216C223.734 158.173 223.763 158.132 223.803 158.097C223.843 158.062 223.893 158.034 223.949 158.015L254.21 145.148C254.319 145.102 254.449 145.089 254.57 145.114C254.692 145.138 254.795 145.197 254.858 145.278C254.92 145.358 254.937 145.453 254.903 145.543C254.87 145.632 254.79 145.708 254.681 145.754L224.4 158.607C224.328 158.636 224.247 158.651 224.165 158.65Z" fill="#455A64"/>
<path d="M224.165 161.883C224.084 161.884 224.004 161.869 223.935 161.838C223.866 161.807 223.809 161.763 223.773 161.71C223.741 161.67 223.721 161.626 223.713 161.581C223.705 161.535 223.709 161.489 223.725 161.444C223.742 161.4 223.77 161.359 223.808 161.322C223.847 161.286 223.895 161.256 223.949 161.233L254.211 148.38C254.262 148.355 254.321 148.339 254.382 148.332C254.443 148.325 254.505 148.328 254.565 148.34C254.624 148.352 254.68 148.374 254.727 148.403C254.774 148.433 254.812 148.469 254.839 148.51C254.87 148.548 254.892 148.59 254.901 148.634C254.91 148.678 254.907 148.723 254.893 148.766C254.878 148.809 254.852 148.849 254.816 148.885C254.779 148.92 254.734 148.95 254.682 148.973L224.401 161.84C224.329 161.869 224.247 161.884 224.165 161.883Z" fill="#E0E0E0"/>
<path d="M224.165 165.097C224.087 165.098 224.009 165.084 223.94 165.056C223.871 165.028 223.814 164.987 223.773 164.938C223.741 164.898 223.721 164.854 223.713 164.809C223.705 164.763 223.709 164.717 223.725 164.672C223.742 164.628 223.77 164.587 223.808 164.55C223.847 164.514 223.895 164.484 223.949 164.461L254.211 151.608C254.262 151.585 254.319 151.569 254.379 151.563C254.438 151.556 254.499 151.558 254.558 151.569C254.616 151.579 254.671 151.599 254.72 151.625C254.768 151.652 254.808 151.686 254.839 151.724C254.871 151.763 254.892 151.806 254.902 151.851C254.911 151.896 254.909 151.942 254.894 151.986C254.88 152.03 254.853 152.072 254.817 152.109C254.78 152.146 254.734 152.177 254.682 152.2L224.401 165.053C224.329 165.083 224.247 165.098 224.165 165.097Z" fill="#E0E0E0"/>
<path d="M224.165 168.411C224.084 168.412 224.004 168.396 223.935 168.366C223.865 168.335 223.809 168.291 223.772 168.238C223.738 168.2 223.716 168.157 223.706 168.112C223.697 168.067 223.7 168.021 223.717 167.977C223.734 167.933 223.763 167.892 223.803 167.858C223.843 167.823 223.893 167.795 223.949 167.775L254.21 154.908C254.317 154.866 254.443 154.856 254.56 154.88C254.677 154.904 254.776 154.961 254.838 155.038C254.87 155.076 254.891 155.118 254.9 155.162C254.91 155.206 254.907 155.25 254.892 155.294C254.878 155.337 254.851 155.377 254.815 155.413C254.779 155.448 254.733 155.478 254.681 155.5L224.4 168.368C224.328 168.397 224.247 168.412 224.165 168.411Z" fill="#E0E0E0"/>
<path d="M224.165 190.764C224.084 190.766 224.004 190.75 223.935 190.719C223.865 190.689 223.809 190.644 223.772 190.591C223.738 190.553 223.716 190.51 223.706 190.465C223.697 190.42 223.7 190.374 223.717 190.33C223.734 190.287 223.763 190.246 223.803 190.211C223.843 190.176 223.893 190.148 223.949 190.129L254.21 177.262C254.317 177.219 254.443 177.209 254.56 177.234C254.677 177.258 254.776 177.314 254.838 177.392C254.87 177.429 254.891 177.471 254.9 177.515C254.91 177.559 254.907 177.604 254.892 177.647C254.878 177.69 254.851 177.731 254.815 177.766C254.779 177.802 254.733 177.831 254.681 177.854L224.4 190.721C224.328 190.75 224.247 190.765 224.165 190.764Z" fill="#455A64"/>
<path d="M224.165 193.999C224.085 193.997 224.007 193.98 223.938 193.949C223.87 193.919 223.813 193.876 223.773 193.825C223.741 193.785 223.721 193.742 223.713 193.696C223.705 193.65 223.709 193.604 223.725 193.56C223.742 193.515 223.77 193.474 223.808 193.438C223.847 193.401 223.895 193.371 223.949 193.349L254.211 180.496C254.262 180.471 254.321 180.454 254.382 180.447C254.443 180.44 254.505 180.443 254.565 180.455C254.624 180.468 254.68 180.489 254.727 180.519C254.774 180.548 254.812 180.585 254.839 180.626C254.87 180.663 254.892 180.706 254.901 180.749C254.91 180.793 254.907 180.838 254.893 180.881C254.878 180.924 254.852 180.965 254.816 181C254.779 181.036 254.734 181.066 254.682 181.088L224.401 193.955C224.329 193.985 224.247 193.999 224.165 193.999Z" fill="#E0E0E0"/>
<path d="M224.165 197.294C224.084 197.295 224.004 197.279 223.935 197.249C223.865 197.218 223.809 197.174 223.772 197.121C223.741 197.082 223.721 197.039 223.714 196.995C223.706 196.95 223.71 196.905 223.727 196.862C223.743 196.819 223.771 196.778 223.81 196.743C223.848 196.709 223.895 196.68 223.949 196.659L254.21 183.806C254.262 183.782 254.319 183.767 254.378 183.76C254.438 183.753 254.499 183.755 254.558 183.766C254.616 183.777 254.671 183.796 254.719 183.823C254.768 183.849 254.808 183.883 254.838 183.921C254.871 183.96 254.892 184.003 254.902 184.048C254.911 184.093 254.909 184.139 254.894 184.183C254.879 184.228 254.853 184.269 254.817 184.306C254.78 184.343 254.734 184.374 254.681 184.398L224.4 197.251C224.328 197.28 224.247 197.295 224.165 197.294Z" fill="#E0E0E0"/>
<path d="M224.165 200.458C224.084 200.459 224.004 200.443 223.935 200.413C223.865 200.382 223.809 200.338 223.772 200.284C223.738 200.246 223.716 200.203 223.706 200.158C223.697 200.114 223.7 200.068 223.717 200.024C223.734 199.98 223.763 199.939 223.803 199.905C223.843 199.87 223.893 199.842 223.949 199.822L254.21 186.955C254.317 186.913 254.443 186.903 254.56 186.927C254.677 186.951 254.776 187.008 254.838 187.085C254.87 187.123 254.891 187.165 254.9 187.209C254.91 187.253 254.907 187.297 254.892 187.34C254.878 187.384 254.851 187.424 254.815 187.459C254.779 187.495 254.733 187.525 254.681 187.547L224.4 200.414C224.328 200.444 224.247 200.459 224.165 200.458Z" fill="#E0E0E0"/>
<path d="M81.7675 280.371C81.6863 280.372 81.6062 280.358 81.5342 280.33C81.4623 280.302 81.4009 280.262 81.3554 280.212C81.324 280.173 81.3036 280.129 81.2955 280.083C81.2874 280.037 81.2917 279.991 81.3081 279.947C81.3245 279.902 81.3528 279.861 81.3912 279.825C81.4297 279.788 81.4775 279.758 81.532 279.736L111.793 266.883C111.846 266.859 111.905 266.843 111.966 266.836C112.027 266.829 112.09 266.831 112.15 266.842C112.21 266.853 112.267 266.872 112.316 266.899C112.366 266.926 112.409 266.959 112.441 266.998C112.499 267.079 112.514 267.174 112.481 267.262C112.448 267.351 112.371 267.427 112.264 267.475L82.1011 280.328C81.9994 280.369 81.8822 280.384 81.7675 280.371Z" fill="#455A64"/>
<path d="M81.768 283.605C81.6847 283.606 81.6026 283.59 81.5302 283.56C81.4577 283.529 81.3976 283.485 81.3559 283.432C81.3249 283.393 81.3049 283.351 81.297 283.306C81.2891 283.262 81.2936 283.216 81.3101 283.173C81.3266 283.13 81.3548 283.09 81.393 283.055C81.4313 283.02 81.4787 282.991 81.5325 282.97L111.794 270.103C111.904 270.06 112.032 270.049 112.153 270.073C112.273 270.097 112.376 270.154 112.441 270.233C112.499 270.311 112.512 270.404 112.479 270.49C112.447 270.576 112.37 270.649 112.265 270.695L82.1017 283.562L81.768 283.605Z" fill="#E0E0E0"/>
<path d="M81.7675 286.829C81.6849 286.827 81.6042 286.81 81.5324 286.78C81.4606 286.75 81.3999 286.707 81.3554 286.656C81.324 286.616 81.3036 286.572 81.2955 286.527C81.2874 286.481 81.2917 286.435 81.3081 286.39C81.3245 286.346 81.3528 286.304 81.3912 286.268C81.4297 286.232 81.4775 286.202 81.532 286.179L111.793 273.326C111.847 273.303 111.907 273.288 111.969 273.282C112.031 273.276 112.094 273.279 112.154 273.292C112.214 273.304 112.271 273.324 112.32 273.353C112.369 273.381 112.41 273.416 112.441 273.456C112.498 273.535 112.512 273.627 112.479 273.714C112.446 273.8 112.369 273.873 112.264 273.918L82.1011 286.829C81.9928 286.856 81.8758 286.856 81.7675 286.829Z" fill="#E0E0E0"/>
<path d="M81.7676 290.063C81.6685 290.059 81.5735 290.032 81.4962 289.986C81.4189 289.941 81.3633 289.878 81.3372 289.808C81.311 289.737 81.3158 289.662 81.3508 289.594C81.3859 289.526 81.4493 289.467 81.5321 289.427L111.793 276.574C111.846 276.55 111.905 276.535 111.966 276.528C112.027 276.521 112.09 276.522 112.15 276.533C112.21 276.544 112.267 276.563 112.317 276.59C112.367 276.617 112.409 276.651 112.441 276.69C112.499 276.771 112.514 276.865 112.481 276.954C112.448 277.042 112.371 277.118 112.264 277.166L82.1012 290.019L81.7676 290.063Z" fill="#E0E0E0"/>
<path d="M433.972 39.8847V215.912C433.867 217.38 433.291 218.808 432.292 220.081C431.292 221.353 429.898 222.434 428.222 223.234L275.346 288.22C274.756 288.488 274.076 288.628 273.383 288.625C273.142 288.646 272.898 288.646 272.657 288.625C272.487 288.597 272.322 288.553 272.167 288.495L271.853 288.379L271.519 288.206C271.405 288.146 271.3 288.079 271.205 288.004C270.754 287.689 270.394 287.311 270.145 286.892C269.744 286.218 269.537 285.49 269.537 284.754V109.594C269.65 108.127 270.229 106.701 271.228 105.429C272.227 104.158 273.617 103.076 275.287 102.272L428.164 37.4152C428.726 37.1212 429.379 36.9344 430.064 36.8714C430.749 36.8084 431.445 36.8712 432.088 37.0541C432.26 37.1156 432.425 37.188 432.579 37.2708C433.084 37.5892 433.476 37.9941 433.719 38.4499C433.962 38.9056 434.049 39.3983 433.972 39.8847Z" fill="#455A64"/>
<path d="M430.774 38.2938C430.958 38.2876 431.141 38.3175 431.304 38.3804H431.402C431.402 38.3804 432.011 38.7559 432.011 39.8245V215.909C431.908 217.123 431.424 218.303 430.596 219.355C429.769 220.408 428.62 221.304 427.242 221.975L274.385 286.961C274.107 287.089 273.79 287.164 273.462 287.178H273.129H273.031L272.874 287.091H272.756L272.658 287.019C272.413 286.834 272.214 286.619 272.069 286.384C271.783 285.896 271.636 285.37 271.637 284.839V109.591C271.758 108.381 272.249 107.206 273.075 106.156C273.901 105.105 275.04 104.206 276.406 103.526L429.283 38.6692C429.752 38.4451 430.294 38.3157 430.853 38.2938H430.774ZM430.853 36.8496C429.95 36.8699 429.07 37.0641 428.301 37.4128L275.425 102.269C273.755 103.074 272.365 104.155 271.366 105.427C270.367 106.699 269.788 108.125 269.675 109.591V284.622C269.675 285.358 269.882 286.085 270.283 286.759C270.532 287.178 270.892 287.556 271.343 287.871C271.438 287.946 271.543 288.014 271.657 288.073L271.991 288.247L272.305 288.362C272.46 288.421 272.625 288.464 272.795 288.492C273.036 288.513 273.28 288.513 273.521 288.492C274.166 288.474 274.794 288.334 275.346 288.088L428.223 223.101C429.898 222.301 431.293 221.221 432.292 219.948C433.292 218.676 433.868 217.247 433.973 215.779V39.8823C434.036 39.4053 433.943 38.924 433.7 38.4791C433.458 38.0343 433.073 37.6388 432.58 37.3262C432.059 37.0411 431.423 36.8936 430.774 36.9074L430.853 36.8496Z" fill="#455A64"/>
<g opacity="0.8">
<path opacity="0.8" d="M433.973 39.8847V215.912C433.868 217.38 433.292 218.808 432.293 220.081C431.293 221.353 429.899 222.434 428.223 223.234L275.347 288.22C274.757 288.488 274.077 288.628 273.384 288.625C273.143 288.646 272.899 288.646 272.658 288.625C272.488 288.597 272.323 288.553 272.168 288.495L271.854 288.379L271.52 288.206C271.406 288.146 271.301 288.079 271.206 288.004C270.755 287.689 270.395 287.311 270.146 286.892C269.745 286.218 269.538 285.49 269.538 284.754V109.594C269.651 108.127 270.23 106.701 271.229 105.429C272.228 104.158 273.618 103.076 275.288 102.272L428.164 37.4152C428.727 37.1212 429.38 36.9344 430.065 36.8714C430.75 36.8084 431.446 36.8712 432.089 37.0541C432.261 37.1156 432.426 37.188 432.58 37.2708C433.085 37.5892 433.477 37.9941 433.72 38.4499C433.963 38.9056 434.05 39.3983 433.973 39.8847Z" fill="#455A64"/>
</g>
<path d="M432.089 36.9932C431.445 36.8102 430.75 36.7474 430.065 36.8104C429.38 36.8734 428.727 37.0603 428.164 37.3542L275.287 102.211C273.617 103.015 272.227 104.097 271.228 105.368C270.23 106.64 269.651 108.066 269.537 109.533V123.353L262.217 120.191V106.471C262.322 105.007 262.896 103.582 263.892 102.312C264.888 101.042 266.277 99.9631 267.948 99.1637L420.844 34.3071C421.436 33.9823 422.14 33.787 422.876 33.7436C423.612 33.7002 424.35 33.8104 425.004 34.0616C426.103 34.567 430.872 36.5888 432.089 36.9932Z" fill="#006D6C"/>
<path d="M433.973 39.8852C433.973 37.2136 431.382 36.1449 428.223 37.488L275.346 102.345C273.679 103.147 272.292 104.226 271.296 105.495C270.301 106.765 269.725 108.189 269.616 109.652V123.473L433.973 53.7057V39.8852Z" fill="#006D6C"/>
<g opacity="0.4">
<path opacity="0.4" d="M428.222 37.4163L275.345 102.273C273.663 103.058 272.273 104.141 271.303 105.421L264.022 102.302C264.951 101.046 266.303 99.9874 267.947 99.2258L420.824 34.3692C421.422 34.0501 422.128 33.8572 422.865 33.8114C423.601 33.7656 424.341 33.8686 425.004 34.1092C426.024 34.5858 430.793 36.5787 432.01 36.9975C431.379 36.8377 430.706 36.7924 430.046 36.8653C429.387 36.9382 428.761 37.1272 428.222 37.4163Z" fill="white"/>
</g>
<path opacity="0.15" d="M262.256 120.262V106.528C262.337 105.029 262.946 103.571 264.022 102.297L271.323 105.402C270.268 106.67 269.68 108.118 269.615 109.604V123.41L262.256 120.262Z" fill="#103E13"/>
<path d="M399.374 55.5652C398.341 56.1667 397.511 56.936 396.95 57.8129C396.388 58.6898 396.109 59.6504 396.136 60.6197C396.136 62.6415 397.589 63.6813 399.374 62.9159C400.404 62.3121 401.232 61.5424 401.793 60.666C402.354 59.7896 402.635 58.8301 402.612 57.8614C402.612 55.7673 401.16 54.7998 399.374 55.5652Z" fill="#455A64"/>
<path d="M411.051 50.5818C410.021 51.1856 409.193 51.9553 408.632 52.8317C408.071 53.7081 407.79 54.6676 407.813 55.6363C407.813 57.6726 409.265 58.6979 411.051 57.947C412.086 57.3462 412.919 56.5774 413.484 55.7006C414.049 54.8238 414.331 53.8627 414.308 52.8925C414.308 50.8562 412.856 49.8309 411.051 50.5818Z" fill="#455A64"/>
<path d="M422.728 45.6555C421.698 46.2593 420.871 47.029 420.309 47.9054C419.748 48.7818 419.467 49.7413 419.49 50.71C419.49 52.7463 420.942 53.7716 422.728 53.0062C423.767 52.4077 424.602 51.6393 425.168 50.762C425.733 49.8847 426.013 48.9225 425.986 47.9517C425.986 45.8866 424.533 44.8468 422.728 45.6555Z" fill="#455A64"/>
<path d="M271.715 288.177L270.989 287.874C270.417 287.607 269.828 287.361 269.223 287.138L268.261 286.733L266.77 286.098L265.494 285.563L264.788 285.275C264.407 285.137 264.072 284.94 263.806 284.697C263.481 284.442 263.216 284.15 263.021 283.831C262.587 283.133 262.366 282.374 262.374 281.607V120.252L269.694 123.415V284.625C269.729 285.358 269.935 286.08 270.302 286.762C270.551 287.181 270.911 287.559 271.362 287.874C271.442 287.959 271.55 288.029 271.676 288.076L271.715 288.177Z" fill="#37474F"/>
<path d="M283.981 129.271C283.99 129.068 284.064 128.87 284.197 128.693L287.258 124.014C287.29 123.963 287.337 123.919 287.395 123.884C287.412 123.871 287.432 123.861 287.454 123.854C287.476 123.847 287.499 123.844 287.523 123.844C287.547 123.844 287.57 123.847 287.592 123.854C287.614 123.861 287.634 123.871 287.651 123.884C287.72 123.944 287.756 124.022 287.749 124.1V125.675C287.773 125.838 287.773 126.002 287.749 126.166C287.749 126.281 287.631 126.426 287.533 126.584L285.904 129.054L287.533 130.151C287.623 130.224 287.695 130.307 287.749 130.397C287.777 130.541 287.777 130.687 287.749 130.83V132.303C287.744 132.413 287.711 132.521 287.651 132.621C287.592 132.708 287.504 132.783 287.395 132.838C287.395 132.838 287.395 132.838 287.258 132.838L284.236 130.859C284.159 130.812 284.099 130.752 284.062 130.684C284.024 130.616 284.01 130.542 284.02 130.469L283.981 129.271Z" fill="#006D6C"/>
<path d="M295.206 117.559C295.254 117.4 295.327 117.245 295.422 117.097C295.524 116.952 295.681 116.832 295.873 116.751L297.031 116.26C297.031 116.26 297.208 116.26 297.267 116.26C297.306 116.287 297.335 116.321 297.352 116.359C297.369 116.397 297.374 116.437 297.365 116.476C297.374 116.534 297.374 116.592 297.365 116.65L292.086 133.156C292.037 133.311 291.965 133.461 291.87 133.604C291.773 133.764 291.608 133.896 291.399 133.979L290.3 134.456C290.266 134.475 290.225 134.485 290.182 134.485C290.14 134.485 290.098 134.475 290.064 134.456C290.024 134.426 289.992 134.39 289.972 134.35C289.952 134.31 289.943 134.267 289.947 134.225C289.94 134.167 289.94 134.109 289.947 134.052L295.206 117.559Z" fill="#006D6C"/>
<path d="M303.331 122.195C303.322 122.402 303.248 122.605 303.115 122.787L300.053 127.452L299.916 127.596C299.878 127.614 299.834 127.624 299.789 127.624C299.743 127.624 299.699 127.614 299.661 127.596C299.623 127.522 299.623 127.44 299.661 127.365V125.791C299.636 125.633 299.636 125.473 299.661 125.315C299.721 125.165 299.799 125.02 299.896 124.881L301.506 122.412L299.896 121.329C299.799 121.258 299.719 121.175 299.661 121.083C299.633 120.94 299.633 120.794 299.661 120.65V119.076C299.636 118.971 299.636 118.863 299.661 118.758C299.719 118.671 299.807 118.596 299.916 118.542C299.936 118.531 299.96 118.525 299.985 118.525C300.009 118.525 300.033 118.531 300.053 118.542L303.115 120.607C303.192 120.657 303.252 120.719 303.289 120.79C303.327 120.86 303.341 120.936 303.331 121.011V122.195Z" fill="#006D6C"/>
<path d="M311.848 121.126C311.893 121.1 311.948 121.086 312.005 121.086C312.062 121.086 312.117 121.1 312.162 121.126C312.25 121.207 312.293 121.311 312.28 121.415V123.133C312.278 123.268 312.238 123.401 312.162 123.523C312.089 123.632 311.981 123.726 311.848 123.797L310.415 124.404C310.375 124.431 310.323 124.447 310.268 124.447C310.214 124.447 310.161 124.431 310.121 124.404C310.07 124.37 310.031 124.327 310.007 124.279C309.983 124.231 309.975 124.18 309.984 124.13V122.397C309.982 122.26 310.03 122.126 310.121 122.007C310.176 121.898 310.28 121.806 310.415 121.747L311.848 121.126Z" fill="#006D6C"/>
<path d="M316.695 119.071C316.737 119.047 316.789 119.033 316.842 119.033C316.896 119.033 316.948 119.047 316.989 119.071C317.078 119.153 317.12 119.256 317.107 119.36V121.079C317.106 121.213 317.066 121.346 316.989 121.468C316.935 121.577 316.831 121.669 316.695 121.728L315.243 122.349C315.201 122.374 315.149 122.387 315.096 122.387C315.042 122.387 314.99 122.374 314.948 122.349C314.86 122.268 314.818 122.164 314.831 122.061V120.342C314.832 120.207 314.872 120.075 314.948 119.952C315.008 119.841 315.11 119.746 315.243 119.678L316.695 119.071Z" fill="#006D6C"/>
<path d="M321.523 117.019C321.566 116.99 321.622 116.975 321.68 116.975C321.738 116.975 321.794 116.99 321.837 117.019C321.881 117.056 321.915 117.1 321.935 117.147C321.955 117.194 321.962 117.244 321.955 117.293V119.026C321.954 119.161 321.914 119.294 321.837 119.416C321.77 119.524 321.661 119.614 321.523 119.676L320.091 120.297C320.049 120.322 319.997 120.335 319.944 120.335C319.89 120.335 319.838 120.322 319.796 120.297C319.745 120.26 319.706 120.214 319.682 120.164C319.658 120.114 319.65 120.061 319.659 120.008V118.29C319.658 118.153 319.705 118.019 319.796 117.9C319.856 117.789 319.958 117.694 320.091 117.625L321.523 117.019Z" fill="#006D6C"/>
<path d="M285.276 141.861L384.322 99.8072C385.146 99.4606 385.833 99.7061 385.833 100.37C385.795 100.744 385.639 101.106 385.376 101.427C385.114 101.748 384.753 102.019 384.322 102.219L285.335 144.272C284.491 144.634 283.824 144.388 283.824 143.709C283.854 143.339 284.001 142.98 284.253 142.659C284.505 142.338 284.855 142.065 285.276 141.861Z" fill="#006D6C"/>
<path d="M308.021 161.185L407.008 119.131C407.832 118.785 408.519 119.03 408.519 119.695C408.481 120.07 408.325 120.434 408.063 120.757C407.8 121.081 407.439 121.355 407.008 121.558L308.021 163.611C307.177 163.958 306.51 163.712 306.51 163.048C306.544 162.672 306.698 162.306 306.961 161.983C307.223 161.659 307.587 161.385 308.021 161.185Z" fill="#C8E6C9"/>
<path d="M308.021 170.861L370.035 144.52C370.879 144.159 371.546 144.404 371.546 145.083C371.51 145.457 371.354 145.819 371.091 146.14C370.829 146.461 370.467 146.732 370.035 146.931L308.021 173.273C307.177 173.619 306.51 173.374 306.51 172.709C306.543 172.335 306.698 171.972 306.961 171.65C307.224 171.329 307.587 171.058 308.021 170.861Z" fill="#C8E6C9"/>
<path d="M308.021 180.522L370.035 154.181C370.879 153.82 371.546 154.08 371.546 154.744C371.51 155.118 371.354 155.48 371.091 155.801C370.829 156.122 370.467 156.394 370.035 156.593L308.021 182.934C307.177 183.295 306.51 183.035 306.51 182.371C306.543 181.996 306.698 181.633 306.961 181.311C307.224 180.99 307.587 180.719 308.021 180.522Z" fill="#C8E6C9"/>
<path d="M390.21 97.3104L418.45 85.2662C419.294 84.9196 419.961 85.1651 419.961 85.8294C419.927 86.2058 419.773 86.5709 419.51 86.8948C419.248 87.2186 418.884 87.492 418.45 87.6924L390.21 99.7365C389.366 100.083 388.699 99.8376 388.699 99.1733C388.732 98.7969 388.887 98.4318 389.149 98.1079C389.412 97.7841 389.776 97.5107 390.21 97.3104Z" fill="#006D6C"/>
<path d="M309.748 237.884L384.322 206.112C385.147 205.751 385.834 206.011 385.834 206.676C385.792 207.049 385.635 207.41 385.372 207.73C385.11 208.051 384.751 208.323 384.322 208.524L309.748 240.295C308.905 240.642 308.237 240.396 308.237 239.732C308.277 239.359 308.434 238.997 308.696 238.677C308.959 238.356 309.319 238.084 309.748 237.884Z" fill="#006D6C"/>
<path d="M390.21 203.596L418.371 191.509C419.215 191.148 419.882 191.408 419.882 192.072C419.849 192.447 419.694 192.81 419.432 193.131C419.169 193.453 418.805 193.723 418.371 193.921L390.21 205.95C389.366 206.311 388.699 206.051 388.699 205.387C388.747 205.023 388.909 204.673 389.171 204.362C389.433 204.052 389.788 203.79 390.21 203.596Z" fill="#006D6C"/>
<path d="M322.406 203.341L418.371 162.616C419.215 162.269 419.882 162.515 419.882 163.179C419.849 163.555 419.694 163.921 419.432 164.244C419.169 164.568 418.805 164.842 418.371 165.042L322.406 205.767C321.582 206.113 320.895 205.868 320.895 205.189C320.936 204.816 321.094 204.455 321.356 204.135C321.618 203.814 321.978 203.542 322.406 203.341Z" fill="#006D6C"/>
<path d="M298.327 223.574L418.371 172.278C419.215 171.931 419.882 172.177 419.882 172.841C419.849 173.218 419.694 173.583 419.432 173.907C419.169 174.23 418.805 174.504 418.371 174.704L298.327 225.986C297.503 226.347 296.816 226.087 296.816 225.423C296.854 225.049 297.01 224.687 297.273 224.366C297.535 224.045 297.896 223.774 298.327 223.574Z" fill="#006D6C"/>
<path d="M303.979 230.664L384.322 196.438C385.147 196.091 385.834 196.337 385.834 197.001C385.795 197.377 385.639 197.741 385.377 198.064C385.114 198.387 384.754 198.661 384.322 198.864L304.038 233.091C303.194 233.437 302.527 233.192 302.527 232.527C302.554 232.155 302.699 231.792 302.951 231.469C303.204 231.145 303.555 230.87 303.979 230.664Z" fill="#E8F5E9"/>
<path d="M298.327 213.548L314.203 206.804C315.027 206.443 315.714 206.703 315.714 207.367C315.676 207.741 315.52 208.102 315.257 208.423C314.995 208.744 314.634 209.016 314.203 209.216L298.327 215.96C297.503 216.321 296.816 216.061 296.816 215.396C296.849 215.022 297.004 214.659 297.267 214.337C297.529 214.016 297.893 213.745 298.327 213.548Z" fill="#006D6C"/>
<path d="M285.276 151.555L354.708 122.036C355.552 121.675 356.239 121.935 356.239 122.599C356.202 122.975 356.043 123.338 355.777 123.66C355.511 123.981 355.145 124.252 354.708 124.448L285.276 153.966C284.432 154.327 283.765 154.067 283.765 153.403C283.798 153.029 283.953 152.666 284.216 152.344C284.478 152.022 284.842 151.752 285.276 151.555Z" fill="#006D6C"/>
<path opacity="0.6" d="M285.276 151.555L354.708 122.036C355.552 121.675 356.239 121.935 356.239 122.599C356.202 122.975 356.043 123.338 355.777 123.66C355.511 123.981 355.145 124.252 354.708 124.448L285.276 153.966C284.432 154.327 283.765 154.067 283.765 153.403C283.798 153.029 283.953 152.666 284.216 152.344C284.478 152.022 284.842 151.752 285.276 151.555Z" fill="white"/>
<path d="M285.276 161.183L299.307 155.219C300.132 154.858 300.819 155.103 300.819 155.782C300.777 156.155 300.62 156.516 300.358 156.837C300.095 157.157 299.736 157.429 299.307 157.631L285.276 163.595C284.432 163.956 283.765 163.696 283.765 163.032C283.798 162.657 283.953 162.294 284.216 161.973C284.478 161.651 284.842 161.38 285.276 161.183Z" fill="#006D6C"/>
<path opacity="0.6" d="M285.276 161.183L299.307 155.219C300.132 154.858 300.819 155.103 300.819 155.782C300.777 156.155 300.62 156.516 300.358 156.837C300.095 157.157 299.736 157.429 299.307 157.631L285.276 163.595C284.432 163.956 283.765 163.696 283.765 163.032C283.798 162.657 283.953 162.294 284.216 161.973C284.478 161.651 284.842 161.38 285.276 161.183Z" fill="white"/>
<path d="M285.276 170.86L299.307 164.896C300.132 164.535 300.819 164.795 300.819 165.459C300.777 165.832 300.62 166.193 300.358 166.513C300.095 166.834 299.736 167.106 299.307 167.307L285.276 173.272C284.432 173.633 283.765 173.373 283.765 172.708C283.798 172.334 283.953 171.971 284.216 171.649C284.478 171.328 284.842 171.057 285.276 170.86Z" fill="#006D6C"/>
<path opacity="0.6" d="M285.276 170.86L299.307 164.896C300.132 164.535 300.819 164.795 300.819 165.459C300.777 165.832 300.62 166.193 300.358 166.513C300.095 166.834 299.736 167.106 299.307 167.307L285.276 173.272C284.432 173.633 283.765 173.373 283.765 172.708C283.798 172.334 283.953 171.971 284.216 171.649C284.478 171.328 284.842 171.057 285.276 170.86Z" fill="white"/>
<path d="M285.276 180.524L299.307 174.56C300.132 174.199 300.819 174.459 300.819 175.123C300.777 175.496 300.62 175.857 300.358 176.178C300.095 176.498 299.736 176.77 299.307 176.971L285.276 182.936C284.432 183.297 283.765 183.037 283.765 182.373C283.801 181.999 283.957 181.636 284.22 181.315C284.482 180.994 284.844 180.723 285.276 180.524Z" fill="#006D6C"/>
<path opacity="0.6" d="M285.276 180.524L299.307 174.56C300.132 174.199 300.819 174.459 300.819 175.123C300.777 175.496 300.62 175.857 300.358 176.178C300.095 176.498 299.736 176.77 299.307 176.971L285.276 182.936C284.432 183.297 283.765 183.037 283.765 182.373C283.801 181.999 283.957 181.636 284.22 181.315C284.482 180.994 284.844 180.723 285.276 180.524Z" fill="white"/>
<path d="M285.276 190.186L299.307 184.222C300.132 183.861 300.819 184.121 300.819 184.785C300.777 185.158 300.62 185.519 300.358 185.84C300.095 186.16 299.736 186.432 299.307 186.634L285.276 192.598C284.432 192.959 283.765 192.699 283.765 192.035C283.801 191.661 283.957 191.299 284.22 190.977C284.482 190.656 284.844 190.385 285.276 190.186Z" fill="#006D6C"/>
<path opacity="0.6" d="M285.276 190.186L299.307 184.222C300.132 183.861 300.819 184.121 300.819 184.785C300.777 185.158 300.62 185.519 300.358 185.84C300.095 186.16 299.736 186.432 299.307 186.634L285.276 192.598C284.432 192.959 283.765 192.699 283.765 192.035C283.801 191.661 283.957 191.299 284.22 190.977C284.482 190.656 284.844 190.385 285.276 190.186Z" fill="white"/>
<path d="M308.021 248.499L370.035 222.157C370.879 221.796 371.546 222.056 371.546 222.721C371.51 223.094 371.354 223.457 371.091 223.778C370.829 224.099 370.467 224.37 370.035 224.569L308.021 250.91C307.177 251.271 306.51 251.011 306.51 250.347C306.543 249.973 306.698 249.61 306.961 249.288C307.224 248.966 307.587 248.696 308.021 248.499Z" fill="#C8E6C9"/>
<path d="M308.021 258.159L370.035 231.817C370.879 231.456 371.546 231.716 371.546 232.381C371.513 232.755 371.358 233.118 371.095 233.44C370.833 233.761 370.469 234.032 370.035 234.229L308.021 260.57C307.177 260.931 306.51 260.672 306.51 260.007C306.547 259.633 306.702 259.271 306.965 258.95C307.228 258.629 307.589 258.358 308.021 258.159Z" fill="#C8E6C9"/>
<path d="M379.063 218.316L418.037 201.809C418.881 201.463 419.548 201.708 419.548 202.372C419.515 202.749 419.36 203.114 419.098 203.438C418.835 203.762 418.472 204.035 418.037 204.235L379.063 220.727C378.238 221.089 377.552 220.829 377.552 220.164C377.59 219.791 377.746 219.429 378.009 219.108C378.271 218.787 378.632 218.516 379.063 218.316Z" fill="#C8E6C9"/>
<path d="M379.063 227.979L418.037 211.473C418.881 211.126 419.548 211.372 419.548 212.05C419.512 212.424 419.356 212.787 419.093 213.108C418.831 213.429 418.469 213.7 418.037 213.899L379.063 230.391C378.238 230.752 377.552 230.492 377.552 229.828C377.593 229.455 377.75 229.094 378.013 228.773C378.275 228.453 378.634 228.181 379.063 227.979Z" fill="#C8E6C9"/>
<path d="M285.276 258.161L299.307 252.196C300.132 251.835 300.819 252.095 300.819 252.76C300.78 253.133 300.624 253.495 300.362 253.816C300.099 254.137 299.738 254.408 299.307 254.608L285.276 260.572C284.432 260.934 283.765 260.688 283.765 260.009C283.801 259.635 283.957 259.273 284.22 258.952C284.482 258.631 284.844 258.36 285.276 258.161Z" fill="#006D6C"/>
<path opacity="0.6" d="M285.276 258.161L299.307 252.196C300.132 251.835 300.819 252.095 300.819 252.76C300.78 253.133 300.624 253.495 300.362 253.816C300.099 254.137 299.738 254.408 299.307 254.608L285.276 260.572C284.432 260.934 283.765 260.688 283.765 260.009C283.801 259.635 283.957 259.273 284.22 258.952C284.482 258.631 284.844 258.36 285.276 258.161Z" fill="white"/>
<path d="M285.276 267.824L299.307 261.86C300.132 261.513 300.819 261.759 300.819 262.423C300.78 262.797 300.624 263.159 300.362 263.48C300.099 263.801 299.738 264.072 299.307 264.272L285.276 270.25C284.432 270.597 283.765 270.352 283.765 269.687C283.798 269.311 283.953 268.946 284.215 268.622C284.478 268.298 284.842 268.025 285.276 267.824Z" fill="#006D6C"/>
<path opacity="0.6" d="M285.276 267.824L299.307 261.86C300.132 261.513 300.819 261.759 300.819 262.423C300.78 262.797 300.624 263.159 300.362 263.48C300.099 263.801 299.738 264.072 299.307 264.272L285.276 270.25C284.432 270.597 283.765 270.352 283.765 269.687C283.798 269.311 283.953 268.946 284.215 268.622C284.478 268.298 284.842 268.025 285.276 267.824Z" fill="white"/>
<path d="M360.596 119.532L378.572 111.921C379.396 111.56 380.083 111.82 380.083 112.484C380.045 112.858 379.889 113.22 379.626 113.541C379.364 113.862 379.003 114.133 378.572 114.333L360.596 121.943C359.752 122.304 359.065 122.059 359.065 121.38C359.105 121.005 359.265 120.643 359.531 120.322C359.797 120 360.162 119.73 360.596 119.532Z" fill="#006D6C"/>
<path opacity="0.6" d="M360.596 119.532L378.572 111.921C379.396 111.56 380.083 111.82 380.083 112.484C380.045 112.858 379.889 113.22 379.626 113.541C379.364 113.862 379.003 114.133 378.572 114.333L360.596 121.943C359.752 122.304 359.065 122.059 359.065 121.38C359.105 121.005 359.265 120.643 359.531 120.322C359.797 120 360.162 119.73 360.596 119.532Z" fill="white"/>
<path d="M306.941 190.559L394.526 153.401C395.351 153.04 396.038 153.3 396.038 153.965C395.999 154.338 395.843 154.7 395.58 155.021C395.318 155.342 394.957 155.613 394.526 155.813L306.941 192.957C306.117 193.318 305.43 193.058 305.43 192.393C305.471 192.022 305.629 191.663 305.891 191.345C306.154 191.027 306.513 190.758 306.941 190.559Z" fill="#E8F5E9"/>
<path d="M285.276 209.665L418.371 152.968C419.215 152.607 419.882 152.867 419.882 153.531C419.848 153.906 419.694 154.269 419.431 154.59C419.168 154.912 418.805 155.182 418.371 155.38L285.276 212.077C284.432 212.438 283.765 212.178 283.765 211.514C283.798 211.139 283.953 210.776 284.216 210.454C284.478 210.133 284.842 209.862 285.276 209.665Z" fill="#E8F5E9"/>
<path d="M400.395 150.909L418.371 143.298C419.215 142.937 419.882 143.197 419.882 143.861C419.849 144.236 419.694 144.599 419.431 144.92C419.168 145.242 418.805 145.513 418.371 145.71L400.395 153.335C399.551 153.681 398.884 153.436 398.884 152.757C398.92 152.383 399.076 152.021 399.339 151.7C399.601 151.379 399.963 151.108 400.395 150.909Z" fill="#E8F5E9"/>
<path d="M308.021 151.537L377.453 122.019C378.297 121.658 378.984 121.918 378.984 122.582C378.944 122.957 378.784 123.319 378.519 123.641C378.253 123.962 377.888 124.232 377.453 124.43L308.021 153.963C307.177 154.324 306.49 154.064 306.49 153.4C306.525 153.022 306.681 152.656 306.948 152.331C307.214 152.007 307.582 151.735 308.021 151.537Z" fill="#006D6C"/>
<path opacity="0.6" d="M308.021 151.537L377.453 122.019C378.297 121.658 378.984 121.918 378.984 122.582C378.944 122.957 378.784 123.319 378.519 123.641C378.253 123.962 377.888 124.232 377.453 124.43L308.021 153.963C307.177 154.324 306.49 154.064 306.49 153.4C306.525 153.022 306.681 152.656 306.948 152.331C307.214 152.007 307.582 151.735 308.021 151.537Z" fill="white"/>
<path d="M383.34 119.521L401.316 111.91C402.141 111.549 402.827 111.795 402.827 112.473C402.786 112.846 402.628 113.207 402.366 113.528C402.104 113.849 401.745 114.12 401.316 114.322L383.34 121.933C382.496 122.294 381.809 122.034 381.809 121.369C381.85 120.995 382.009 120.632 382.275 120.311C382.541 119.99 382.906 119.719 383.34 119.521Z" fill="#006D6C"/>
<path opacity="0.6" d="M383.34 119.521L401.316 111.91C402.141 111.549 402.827 111.795 402.827 112.473C402.786 112.846 402.628 113.207 402.366 113.528C402.104 113.849 401.745 114.12 401.316 114.322L383.34 121.933C382.496 122.294 381.809 122.034 381.809 121.369C381.85 120.995 382.009 120.632 382.275 120.311C382.541 119.99 382.906 119.719 383.34 119.521Z" fill="white"/>
<path opacity="0.1" d="M68.4621 323.608L12.2568 347.479C11.5976 347.796 11.0494 348.222 10.6571 348.724C10.2648 349.226 10.0397 349.789 10 350.368V400.234C10 401.288 11.0205 401.678 12.2568 401.187L68.4621 377.359C69.1192 377.041 69.6657 376.614 70.0577 376.112C70.4497 375.611 70.6761 375.048 70.7189 374.471V324.561C70.7189 323.507 69.6984 323.088 68.4621 323.608Z" fill="#103E13"/>
<path opacity="0.1" d="M52.5268 224.603L11.0401 242.193C10.7382 242.336 10.4865 242.529 10.3057 242.758C10.125 242.986 10.0202 243.243 10 243.507V260.548C10 261.039 10.471 261.226 11.0401 260.981L52.5268 243.391C52.8284 243.251 53.0801 243.06 53.261 242.834C53.4419 242.608 53.5468 242.353 53.5669 242.092V225.036C53.5669 224.56 53.0959 224.357 52.5268 224.603Z" fill="#103E13"/>
<path opacity="0.1" d="M52.5268 260.025L11.0401 277.614C10.7382 277.758 10.4865 277.951 10.3057 278.18C10.125 278.408 10.0202 278.665 10 278.929V295.97C10 296.446 10.471 296.648 11.0401 296.403L52.5268 278.813C52.8299 278.671 53.0824 278.477 53.2633 278.249C53.4442 278.02 53.5483 277.763 53.5669 277.499V260.458C53.5669 259.981 53.0959 259.779 52.5268 260.025Z" fill="#103E13"/>
<path opacity="0.1" d="M52.5268 295.491L11.0401 313.037C10.737 313.18 10.4845 313.373 10.3036 313.602C10.1227 313.83 10.0186 314.087 10 314.352V331.393C10 331.869 10.471 332.071 11.0401 331.826L52.5268 314.265C52.8288 314.122 53.0804 313.928 53.2612 313.7C53.442 313.471 53.5467 313.215 53.5669 312.951V295.91C53.5669 295.39 53.0959 295.202 52.5268 295.491Z" fill="#103E13"/>
<path d="M75.4287 325.609L19.302 349.438C18.6427 349.754 18.0945 350.181 17.7023 350.683C17.31 351.185 17.0848 351.748 17.0452 352.326V402.193C17.0801 402.772 17.3032 403.336 17.6959 403.839C18.0886 404.341 18.6394 404.767 19.302 405.081L23.5802 406.857C24.28 407.117 25.053 407.253 25.8371 407.253C26.6211 407.253 27.3941 407.117 28.0939 406.857L84.2991 383.029C84.9584 382.713 85.5066 382.286 85.8989 381.784C86.2911 381.282 86.5163 380.719 86.556 380.14V330.158C86.5189 329.578 86.2927 329.013 85.8966 328.51C85.5004 328.007 84.9458 327.582 84.2795 327.27L80.0209 325.494C79.2986 325.242 78.5047 325.121 77.7058 325.141C76.9068 325.161 76.126 325.322 75.4287 325.609Z" fill="#006D6C"/>
<path opacity="0.2" d="M28.0154 406.77C27.3126 407.023 26.5407 407.154 25.7586 407.154C24.9764 407.154 24.2045 407.023 23.5017 406.77L19.302 404.994C18.636 404.683 18.0825 404.258 17.6894 403.755C17.2963 403.252 17.0752 402.686 17.0452 402.106V352.297C17.0841 351.697 17.3344 351.115 17.7713 350.607L26.5043 354.333C26.0936 354.826 25.8637 355.388 25.8371 355.965V405.817C25.7586 406.785 26.6809 407.333 28.0154 406.77Z" fill="#103E13"/>
<path opacity="0.5" d="M86.4382 329.927C86.2615 329.089 85.3392 328.786 84.2206 329.262L28.0153 353.105C27.3495 353.406 26.8016 353.829 26.4257 354.333L17.6731 350.607C18.0481 350.127 18.5813 349.725 19.2235 349.437L75.4287 325.609C76.1284 325.348 76.9015 325.213 77.6855 325.213C78.4696 325.213 79.2426 325.348 79.9424 325.609L84.2009 327.385C84.7982 327.667 85.3068 328.04 85.6926 328.478C86.0784 328.916 86.3326 329.41 86.4382 329.927Z" fill="white"/>
<path d="M84.2201 329.264L28.0149 353.107C27.3545 353.423 26.8055 353.849 26.4131 354.351C26.0207 354.853 25.7961 355.417 25.7581 355.996V405.847C25.7581 406.902 26.7785 407.292 28.0149 406.801L84.2201 382.972C84.8769 382.655 85.4221 382.228 85.811 381.726C86.1999 381.224 86.4214 380.661 86.4573 380.084V330.16C86.4573 329.163 85.4565 328.716 84.2201 329.264Z" fill="#006D6C"/>
<path d="M29.4875 378.912C29.474 378.562 29.554 378.214 29.723 377.886C29.9327 377.551 30.1753 377.228 30.4491 376.919L43.6958 361.149C43.7593 361.081 43.8316 361.018 43.9117 360.961L44.0687 360.874C44.1366 360.831 44.2238 360.807 44.314 360.807C44.4042 360.807 44.4913 360.831 44.5593 360.874C44.633 360.94 44.6882 361.017 44.7219 361.098C44.7556 361.18 44.767 361.266 44.7555 361.351V367.445C44.7762 367.885 44.648 368.322 44.3827 368.716C44.1766 369.001 43.9472 369.275 43.6958 369.539L37.8084 376.096L43.6958 377.771C43.9374 377.826 44.1682 377.903 44.3827 378.002C44.6378 378.118 44.7555 378.435 44.7555 378.941V385.035C44.7598 385.26 44.6926 385.482 44.5593 385.685C44.4558 385.861 44.2855 386.011 44.0687 386.118H43.9117C43.8411 386.133 43.7663 386.133 43.6958 386.118L30.4491 381.612C30.1732 381.534 29.925 381.41 29.723 381.251C29.5308 381.007 29.4484 380.724 29.4875 380.443V378.912Z" fill="white"/>
<path d="M58.3943 352.167C58.5087 351.828 58.6732 351.498 58.8849 351.185C59.0911 350.864 59.4268 350.596 59.8465 350.42L64.2817 348.528C64.3559 348.482 64.4497 348.457 64.5467 348.457C64.6436 348.457 64.7374 348.482 64.8116 348.528C64.8903 348.595 64.9499 348.673 64.987 348.757C65.024 348.842 65.0378 348.931 65.0275 349.019C65.042 349.139 65.042 349.26 65.0275 349.38L53.8217 384.531C53.7224 384.862 53.5641 385.183 53.3507 385.484C53.145 385.818 52.8017 386.096 52.3695 386.278L48.0128 388.127C47.9417 388.171 47.8512 388.196 47.7577 388.196C47.6641 388.196 47.5737 388.171 47.5026 388.127C47.4239 388.059 47.3643 387.981 47.3272 387.897C47.2901 387.813 47.2763 387.724 47.2867 387.635C47.2625 387.516 47.2625 387.394 47.2867 387.274L58.3943 352.167Z" fill="white"/>
<path d="M82.7494 357.855C82.7595 358.204 82.6796 358.552 82.5139 358.88C82.2994 359.209 82.0568 359.527 81.7878 359.833L68.5215 375.603C68.4685 375.672 68.4024 375.736 68.3252 375.791L68.1682 375.878C67.972 375.964 67.7954 375.964 67.6776 375.878C67.603 375.812 67.5471 375.736 67.5134 375.654C67.4797 375.572 67.4688 375.486 67.4814 375.401V369.321C67.4564 368.886 67.5848 368.453 67.8542 368.065C68.1094 367.733 68.3252 367.458 68.5215 367.242L74.4089 360.656L68.5215 359.024C68.2823 358.963 68.0573 358.876 67.8542 358.765C67.5991 358.635 67.4814 358.317 67.4814 357.826V351.732C67.4771 351.507 67.5443 351.284 67.6776 351.082C67.7747 350.903 67.9465 350.751 68.1682 350.648H68.3252H68.5215L81.7878 355.154C82.0637 355.233 82.312 355.356 82.5139 355.515C82.6979 355.762 82.7797 356.043 82.7494 356.324V357.855Z" fill="white"/>
<path d="M59.5519 226.532L18.0653 244.136C17.7637 244.276 17.512 244.467 17.331 244.693C17.1501 244.919 17.0452 245.174 17.0251 245.436V262.491C17.0452 262.753 17.1501 263.008 17.331 263.234C17.512 263.46 17.7637 263.651 18.0653 263.791L22.1668 265.509C22.474 265.615 22.809 265.67 23.1481 265.67C23.4872 265.67 23.8221 265.615 24.1293 265.509L65.7337 247.847C66.0299 247.701 66.2761 247.506 66.4531 247.278C66.6301 247.05 66.7332 246.795 66.7542 246.533V229.492C66.7341 229.23 66.6292 228.976 66.4483 228.75C66.2674 228.524 66.0157 228.333 65.7141 228.193L61.6321 226.474C61.3015 226.369 60.9431 226.319 60.5831 226.329C60.2232 226.339 59.8708 226.409 59.5519 226.532Z" fill="#006D6C"/>
<path opacity="0.4" d="M59.5519 226.532L18.0653 244.136C17.7637 244.276 17.512 244.467 17.331 244.693C17.1501 244.919 17.0452 245.174 17.0251 245.436V262.491C17.0452 262.753 17.1501 263.008 17.331 263.234C17.512 263.46 17.7637 263.651 18.0653 263.791L22.1668 265.509C22.474 265.615 22.809 265.67 23.1481 265.67C23.4872 265.67 23.8221 265.615 24.1293 265.509L65.7337 247.847C66.0299 247.701 66.2761 247.506 66.4531 247.278C66.6301 247.05 66.7332 246.795 66.7542 246.533V229.492C66.7341 229.23 66.6292 228.976 66.4483 228.75C66.2674 228.524 66.0157 228.333 65.7141 228.193L61.6321 226.474C61.3015 226.369 60.9431 226.319 60.5831 226.329C60.2232 226.339 59.8708 226.409 59.5519 226.532Z" fill="#103E13"/>
<path d="M66.7338 229.406C66.7338 229.03 66.2432 228.9 65.7134 229.117L24.2267 246.706C23.9234 246.846 23.6735 247.04 23.5005 247.27L17.3384 244.67C17.5035 244.444 17.7473 244.255 18.0449 244.121L59.5316 226.532C59.8551 226.414 60.211 226.354 60.5717 226.354C60.9323 226.354 61.2882 226.414 61.6118 226.532L65.6937 228.25C65.9735 228.373 66.2122 228.541 66.3922 228.741C66.5722 228.941 66.689 229.168 66.7338 229.406Z" fill="#006D6C"/>
<path d="M65.7331 229.075L24.2268 246.708C23.9262 246.851 23.6767 247.045 23.4991 247.274C23.3216 247.503 23.2211 247.759 23.2063 248.022V265.063C23.2063 265.54 23.6577 265.742 24.2268 265.497L65.7331 247.849C66.0325 247.705 66.2812 247.511 66.4586 247.282C66.636 247.054 66.7371 246.798 66.7536 246.535V229.494C66.7536 229.075 66.4003 228.873 65.7331 229.075Z" fill="#006D6C"/>
<g opacity="0.2">
<path opacity="0.2" d="M65.7331 229.077L24.2268 246.71C23.9262 246.853 23.6767 247.047 23.4991 247.276C23.3216 247.504 23.2211 247.761 23.2063 248.024V265.065C23.2063 265.542 23.6577 265.744 24.2268 265.498L65.7331 247.851C66.0325 247.707 66.2812 247.513 66.4586 247.284C66.636 247.056 66.7371 246.8 66.7536 246.537V229.496C66.7536 229.077 66.4003 228.875 65.7331 229.077Z" fill="#103E13"/>
</g>
<path d="M33.4514 251.055C33.4514 251.199 33.4514 251.372 33.4514 251.603V253.048C33.4514 253.279 33.4514 253.452 33.4514 253.582C33.4685 253.786 33.5079 253.989 33.5691 254.188C33.6103 254.35 33.7123 254.5 33.8635 254.622C33.9987 254.724 34.1804 254.786 34.3737 254.795C34.6403 254.781 34.8974 254.717 35.1195 254.607C35.407 254.503 35.6612 254.356 35.8652 254.174C36.0523 254.027 36.2108 253.862 36.3362 253.683C36.4589 253.523 36.5576 253.353 36.6306 253.178C36.6306 253.004 36.7483 252.86 36.7876 252.73C36.8066 252.591 36.8528 252.455 36.9249 252.325C36.9981 252.228 37.1069 252.148 37.2389 252.094L38.9659 251.358C38.9659 251.358 39.1229 251.358 39.1622 251.358C39.1956 251.382 39.2216 251.412 39.2385 251.444C39.2555 251.476 39.2629 251.511 39.2603 251.546C39.2424 252.084 39.1303 252.617 38.9267 253.134C38.7104 253.672 38.4142 254.19 38.0435 254.679C37.6772 255.159 37.243 255.61 36.7483 256.022C36.2816 256.413 35.7314 256.745 35.1195 257.005C34.6087 257.246 34.0187 257.38 33.4121 257.394C32.9469 257.398 32.4948 257.281 32.1365 257.062C31.7481 256.809 31.4685 256.478 31.3319 256.109C31.1265 255.642 31.0142 255.156 30.9983 254.665C30.9983 254.261 30.9983 253.827 30.9983 253.365C30.9983 252.903 30.9983 252.427 30.9983 251.993C31.0282 251.419 31.1333 250.848 31.3123 250.289C31.5043 249.72 31.7807 249.168 32.1365 248.643C32.4755 248.123 32.9043 247.638 33.4121 247.199C33.8999 246.782 34.4766 246.426 35.1195 246.145C35.613 245.922 36.1712 245.788 36.7483 245.755C37.2024 245.729 37.6557 245.81 38.0435 245.986C38.441 246.178 38.7491 246.455 38.9267 246.78C39.1497 247.194 39.263 247.635 39.2603 248.08C39.2583 248.176 39.2246 248.27 39.1622 248.354C39.1248 248.43 39.0562 248.496 38.9659 248.542L37.2389 249.278C37.0819 249.278 36.9838 249.351 36.9249 249.278C36.8471 249.197 36.7997 249.103 36.7876 249.004C36.7876 248.903 36.7876 248.787 36.6306 248.672C36.5606 248.57 36.4599 248.481 36.3362 248.412C36.1941 248.35 36.0304 248.319 35.8652 248.325C35.5981 248.347 35.3423 248.417 35.1195 248.527C34.8292 248.641 34.5749 248.798 34.3737 248.989C34.1635 249.166 33.9914 249.366 33.8635 249.582C33.7277 249.798 33.6288 250.026 33.5691 250.26C33.5056 250.523 33.4663 250.788 33.4514 251.055Z" fill="#F5F7FA"/>
<path d="M44.814 242.133C45.2797 241.912 45.812 241.778 46.3643 241.743C46.7922 241.719 47.2205 241.784 47.6007 241.931C47.9393 242.081 48.2172 242.296 48.4053 242.552C48.6013 242.823 48.7025 243.126 48.6997 243.433C48.7272 243.518 48.7272 243.607 48.6997 243.693C48.6662 243.77 48.5967 243.837 48.5034 243.88L46.7764 244.617C46.6735 244.636 46.5654 244.636 46.4624 244.617L46.2466 244.53L46.1092 244.429C46.0421 244.379 45.962 244.34 45.8737 244.314C45.7381 244.291 45.5972 244.291 45.4616 244.314C45.256 244.328 45.0595 244.383 44.8925 244.472C44.7215 244.546 44.5575 244.628 44.4018 244.718C44.2507 244.803 44.1125 244.9 43.9897 245.007C43.8732 245.119 43.7745 245.24 43.6953 245.368C43.6233 245.501 43.5898 245.644 43.5972 245.787C43.5781 245.9 43.6204 246.014 43.715 246.104C43.7715 246.145 43.8399 246.175 43.9148 246.192C43.9897 246.21 44.069 246.214 44.1467 246.205C44.4119 246.198 44.6752 246.169 44.9317 246.119L46.1484 245.888C46.5621 245.798 46.9931 245.759 47.4241 245.772C47.753 245.781 48.0696 245.867 48.3268 246.018C48.5921 246.202 48.7824 246.437 48.8763 246.696C49.0083 247.069 49.0678 247.453 49.0529 247.837C49.0477 248.328 48.9418 248.815 48.7389 249.282C48.537 249.786 48.2537 250.271 47.895 250.726C47.529 251.165 47.087 251.568 46.5802 251.924C46.0959 252.285 45.5481 252.596 44.9513 252.849C44.4532 253.082 43.8897 253.231 43.3028 253.282C42.8795 253.323 42.449 253.268 42.0698 253.123C41.6906 252.979 41.3811 252.752 41.1834 252.473C40.9831 252.161 40.876 251.821 40.8694 251.477C40.8766 251.381 40.91 251.288 40.9675 251.202C40.9997 251.132 41.0616 251.071 41.1441 251.029L42.8907 250.292C42.9763 250.246 43.0792 250.221 43.1851 250.22C43.2602 250.226 43.3299 250.252 43.3814 250.292L43.558 250.408C43.6265 250.48 43.722 250.535 43.8327 250.567C43.9801 250.598 44.1367 250.598 44.2841 250.567C44.5232 250.553 44.7533 250.493 44.9513 250.394C45.3903 250.215 45.7877 249.986 46.1288 249.715C46.4276 249.497 46.5969 249.201 46.5998 248.892C46.6088 248.834 46.5973 248.776 46.5663 248.723C46.5353 248.669 46.486 248.623 46.4232 248.588C46.255 248.562 46.0811 248.562 45.9129 248.588C45.6138 248.612 45.3182 248.655 45.0298 248.718L43.7542 248.964C43.4254 249.053 43.0699 249.077 42.7248 249.031C42.3796 248.985 42.0575 248.872 41.7917 248.704C41.2929 248.183 41.0695 247.546 41.1638 246.913C41.1645 246.459 41.2503 246.007 41.4189 245.57C41.5922 245.097 41.8426 244.641 42.1646 244.213C42.4937 243.777 42.8887 243.37 43.3421 242.999C43.7721 242.659 44.2681 242.367 44.814 242.133Z" fill="#F5F7FA"/>
<path d="M54.3324 238.047C54.8019 237.834 55.333 237.705 55.8827 237.671C56.3044 237.646 56.7269 237.711 57.0995 237.859C57.4542 237.999 57.742 238.216 57.9237 238.48C58.1132 238.753 58.214 239.054 58.2181 239.361C58.2456 239.446 58.2456 239.535 58.2181 239.621C58.1732 239.694 58.106 239.758 58.0218 239.809L56.2752 240.545C56.1796 240.568 56.0765 240.568 55.9809 240.545C55.894 240.54 55.8115 240.515 55.7454 240.473L55.6276 240.372C55.5605 240.322 55.4804 240.283 55.3921 240.256C55.2565 240.233 55.1156 240.233 54.98 240.256C54.7756 240.283 54.5816 240.342 54.4109 240.43C54.2356 240.498 54.0711 240.58 53.9203 240.675C53.7691 240.76 53.6309 240.857 53.5081 240.964C53.3866 241.073 53.2874 241.195 53.2138 241.325C53.1355 241.457 53.0954 241.6 53.096 241.744C53.0865 241.858 53.1355 241.972 53.2334 242.061C53.2869 242.1 53.352 242.13 53.4234 242.147C53.4949 242.165 53.5709 242.17 53.6455 242.162C53.9173 242.156 54.1872 242.127 54.4501 242.076L55.6669 241.845C56.0717 241.748 56.498 241.708 56.9228 241.729C57.2594 241.731 57.5849 241.818 57.8452 241.975C58.1003 242.157 58.2834 242.386 58.3751 242.639C58.5135 243.016 58.5796 243.404 58.5713 243.794C58.5604 244.284 58.4547 244.771 58.2573 245.239C57.84 246.223 57.0984 247.116 56.0986 247.838C55.6092 248.194 55.0621 248.504 54.4697 248.762C53.9662 248.988 53.4052 249.135 52.8213 249.195C52.3821 249.232 51.9383 249.171 51.5457 249.022C51.1852 248.87 50.8922 248.644 50.7018 248.372C50.4899 248.069 50.3821 247.732 50.3878 247.39C50.36 247.3 50.36 247.206 50.3878 247.116C50.4328 247.047 50.5002 246.988 50.5841 246.943L52.3307 246.206C52.4484 246.206 52.5465 246.119 52.6054 246.206C52.6761 246.192 52.7506 246.192 52.8213 246.206L52.9783 246.336C53.0641 246.4 53.1635 246.454 53.2726 246.495C53.42 246.527 53.5766 246.527 53.724 246.495C53.9604 246.472 54.1877 246.413 54.3912 246.322C54.826 246.138 55.2226 245.91 55.5687 245.643C55.8675 245.425 56.0369 245.129 56.0397 244.82C56.0487 244.762 56.0372 244.704 56.0062 244.651C55.9752 244.598 55.9259 244.551 55.8631 244.516C55.6961 244.483 55.5198 244.483 55.3529 244.516C55.0537 244.54 54.7582 244.583 54.4697 244.646L53.1941 244.877C52.867 244.969 52.5125 244.995 52.1675 244.951C51.8224 244.908 51.4993 244.798 51.2317 244.632C50.7262 244.108 50.4961 243.466 50.5841 242.827C50.5931 242.372 50.6855 241.92 50.8588 241.484C51.0237 241.013 51.2746 240.561 51.6045 240.141C51.9265 239.697 52.3221 239.285 52.782 238.913C53.2406 238.572 53.7626 238.28 54.3324 238.047Z" fill="#F5F7FA"/>
<path d="M59.5519 261.953L18.0653 279.615C17.7654 279.76 17.5154 279.954 17.3349 280.182C17.1544 280.41 17.0484 280.666 17.0251 280.929V297.97C17.0453 298.234 17.1501 298.491 17.3309 298.719C17.5116 298.948 17.7633 299.141 18.0653 299.285L22.1668 300.989C22.4724 301.098 22.808 301.155 23.1481 301.155C23.4881 301.155 23.8237 301.098 24.1293 300.989L65.6356 283.399C65.9297 283.251 66.1744 283.056 66.3511 282.828C66.5279 282.601 66.6322 282.346 66.6561 282.085V265.044C66.6359 264.78 66.5311 264.523 66.3504 264.295C66.1696 264.066 65.9179 263.873 65.616 263.73L61.534 262.026C61.2307 261.908 60.8962 261.841 60.5538 261.828C60.2115 261.816 59.8696 261.859 59.5519 261.953Z" fill="#006D6C"/>
<path opacity="0.4" d="M59.5519 261.953L18.0653 279.615C17.7654 279.76 17.5154 279.954 17.3349 280.182C17.1544 280.41 17.0484 280.666 17.0251 280.929V297.97C17.0453 298.234 17.1501 298.491 17.3309 298.719C17.5116 298.948 17.7633 299.141 18.0653 299.285L22.1668 300.989C22.4724 301.098 22.808 301.155 23.1481 301.155C23.4881 301.155 23.8237 301.098 24.1293 300.989L65.6356 283.399C65.9297 283.251 66.1744 283.056 66.3511 282.828C66.5279 282.601 66.6322 282.346 66.6561 282.085V265.044C66.6359 264.78 66.5311 264.523 66.3504 264.295C66.1696 264.066 65.9179 263.873 65.616 263.73L61.534 262.026C61.2307 261.908 60.8962 261.841 60.5538 261.828C60.2115 261.816 59.8696 261.859 59.5519 261.953Z" fill="#103E13"/>
<path d="M66.7333 264.825C66.7333 264.449 66.2427 264.305 65.7129 264.521L24.2262 282.126C23.9229 282.265 23.673 282.459 23.5001 282.689L17.3379 280.089C17.503 279.863 17.7468 279.674 18.0444 279.541L59.5311 261.951C59.8533 261.83 60.2097 261.768 60.5712 261.768C60.9327 261.768 61.289 261.83 61.6113 261.951L65.7129 263.727C65.979 263.846 66.2075 264.006 66.3835 264.195C66.5594 264.384 66.6787 264.599 66.7333 264.825Z" fill="#006D6C"/>
<path d="M65.7331 264.522L24.2268 282.126C23.9277 282.267 23.679 282.458 23.5014 282.685C23.3238 282.911 23.2226 283.165 23.2063 283.426V300.481C23.2063 300.958 23.6577 301.16 24.2268 300.915L65.7331 283.325C66.0303 283.179 66.2773 282.985 66.4545 282.757C66.6316 282.528 66.734 282.273 66.7536 282.011V264.97C66.7536 264.479 66.4003 264.291 65.7331 264.522Z" fill="#006D6C"/>
<g opacity="0.2">
<path opacity="0.2" d="M65.7329 264.52L24.2265 282.124C23.9275 282.265 23.6787 282.456 23.5012 282.683C23.3236 282.909 23.2224 283.163 23.2061 283.424V300.479C23.2061 300.956 23.6574 301.158 24.2265 300.913L65.7329 283.323C66.0301 283.177 66.2771 282.983 66.4542 282.755C66.6314 282.526 66.7338 282.271 66.7533 282.009V264.968C66.7533 264.477 66.4001 264.289 65.7329 264.52Z" fill="#103E13"/>
</g>
<path d="M33.6474 282.409C33.6639 282.397 33.6837 282.386 33.7056 282.38C33.7275 282.373 33.7511 282.369 33.775 282.369C33.7988 282.369 33.8224 282.373 33.8443 282.38C33.8662 282.386 33.886 282.397 33.9025 282.409C33.9441 282.439 33.9763 282.475 33.9966 282.515C34.017 282.555 34.025 282.598 34.0203 282.64V292.345C34.0157 292.461 33.9754 292.574 33.9025 292.677C33.8508 292.767 33.7615 292.843 33.6474 292.894L31.9204 293.63C31.9039 293.643 31.8841 293.653 31.8622 293.66C31.8403 293.667 31.8167 293.67 31.7929 293.67C31.769 293.67 31.7454 293.667 31.7235 293.66C31.7016 293.653 31.6818 293.643 31.6653 293.63C31.6653 293.63 31.6653 293.515 31.6653 293.399V289.717L28.7216 290.973V294.641C28.7226 294.758 28.682 294.872 28.6039 294.973C28.5576 295.066 28.4757 295.146 28.3684 295.204L26.6218 295.941C26.5862 295.963 26.541 295.976 26.4942 295.976C26.4474 295.976 26.4022 295.963 26.3666 295.941C26.3277 295.862 26.3277 295.775 26.3666 295.695V285.991C26.3394 285.881 26.3394 285.768 26.3666 285.659C26.425 285.567 26.5125 285.488 26.6218 285.427L28.3684 284.691C28.4023 284.672 28.4436 284.662 28.4861 284.662C28.5286 284.662 28.5699 284.672 28.6039 284.691C28.6459 284.723 28.6782 284.762 28.6985 284.804C28.7188 284.847 28.7266 284.892 28.7216 284.936V288.547L31.6653 287.305V283.68C31.6302 283.571 31.6302 283.457 31.6653 283.348C31.7235 283.261 31.8114 283.186 31.9204 283.131L33.6474 282.409Z" fill="#F5F7FA"/>
<path d="M43.3416 278.294C43.358 278.281 43.3779 278.271 43.3998 278.264C43.4217 278.257 43.4453 278.254 43.4691 278.254C43.493 278.254 43.5165 278.257 43.5385 278.264C43.5604 278.271 43.5802 278.281 43.5967 278.294C43.6343 278.369 43.6343 278.45 43.5967 278.525V280.114C43.6263 280.223 43.6263 280.336 43.5967 280.446C43.5441 280.539 43.4554 280.62 43.3416 280.677L41.0062 281.673V289.371C40.998 289.491 40.958 289.608 40.8885 289.717C40.8301 289.808 40.7426 289.888 40.6333 289.948L38.8867 290.685C38.8487 290.703 38.8044 290.712 38.7592 290.712C38.7139 290.712 38.6697 290.703 38.6316 290.685C38.5942 290.605 38.5942 290.519 38.6316 290.439V282.742L36.2963 283.724C36.2607 283.746 36.2155 283.759 36.1687 283.759C36.122 283.759 36.0767 283.746 36.0412 283.724C35.9744 283.652 35.9401 283.566 35.943 283.478V281.89C35.9451 281.775 35.9785 281.663 36.0412 281.558C36.0938 281.464 36.1825 281.384 36.2963 281.327L43.3416 278.294Z" fill="#F5F7FA"/>
<path d="M49.4255 283.567C49.3544 283.517 49.2948 283.458 49.2489 283.394L47.9929 281.444V286.412C47.9982 286.527 47.9644 286.641 47.8948 286.744C47.8422 286.838 47.7535 286.918 47.6397 286.975L45.9127 287.712C45.8771 287.734 45.8319 287.747 45.7851 287.747C45.7383 287.747 45.6931 287.734 45.6575 287.712C45.6354 287.673 45.624 287.631 45.624 287.589C45.624 287.547 45.6354 287.505 45.6575 287.466V277.776C45.621 277.667 45.621 277.553 45.6575 277.444C45.7102 277.35 45.7988 277.27 45.9127 277.213L47.4434 276.563C47.62 276.563 47.7574 276.563 47.8359 276.563C47.9042 276.61 47.9636 276.663 48.0125 276.722L50.1712 279.971L52.3103 274.902C52.3554 274.793 52.4145 274.686 52.487 274.585C52.5613 274.444 52.7001 274.326 52.8795 274.252L54.4102 273.603C54.4267 273.59 54.4465 273.58 54.4684 273.573C54.4903 273.566 54.5139 273.563 54.5377 273.562C54.5616 273.563 54.5852 273.566 54.6071 273.573C54.629 273.58 54.6488 273.59 54.6653 273.603C54.6881 273.639 54.7 273.678 54.7 273.718C54.7 273.758 54.6881 273.797 54.6653 273.834V283.538C54.7019 283.647 54.7019 283.761 54.6653 283.87C54.607 283.962 54.5194 284.041 54.4102 284.102L52.6832 284.838C52.6452 284.856 52.6009 284.866 52.5556 284.866C52.5104 284.866 52.4661 284.856 52.4281 284.838C52.4059 284.799 52.3946 284.757 52.3946 284.715C52.3946 284.673 52.4059 284.631 52.4281 284.593V279.61L51.1721 282.614C51.1237 282.728 51.0647 282.839 50.9955 282.946C50.9296 283.055 50.8199 283.145 50.6815 283.206L49.8376 283.553C49.6021 283.611 49.504 283.625 49.4255 283.567Z" fill="#F5F7FA"/>
<path d="M63.7912 277.719C63.7912 277.719 63.9678 277.719 64.0267 277.719C64.0683 277.749 64.1004 277.785 64.1208 277.825C64.1411 277.865 64.1492 277.908 64.1444 277.95V279.611C64.1454 279.727 64.1048 279.842 64.0267 279.943C63.9864 280.038 63.9033 280.119 63.7912 280.174L57.6486 282.774C57.6131 282.796 57.5678 282.808 57.5211 282.808C57.4743 282.808 57.4291 282.796 57.3935 282.774C57.3561 282.694 57.3561 282.608 57.3935 282.528V272.823C57.3664 272.718 57.3664 272.611 57.3935 272.506C57.4461 272.412 57.5348 272.332 57.6486 272.275L59.3756 271.538C59.3921 271.525 59.4119 271.515 59.4338 271.508C59.4557 271.502 59.4793 271.498 59.5032 271.498C59.527 271.498 59.5506 271.502 59.5725 271.508C59.5944 271.515 59.6143 271.525 59.6307 271.538C59.6723 271.568 59.7045 271.604 59.7248 271.644C59.7452 271.684 59.7533 271.727 59.7485 271.769V279.481L63.7912 277.719Z" fill="#F5F7FA"/>
<path d="M59.5519 297.383L18.0653 314.972C17.7633 315.115 17.5116 315.309 17.3309 315.537C17.1501 315.766 17.0453 316.023 17.0251 316.286V333.327C17.0453 333.591 17.1501 333.848 17.3309 334.076C17.5116 334.305 17.7633 334.498 18.0653 334.642L22.1668 336.346C22.474 336.451 22.809 336.506 23.1481 336.506C23.4872 336.506 23.8221 336.451 24.1293 336.346L65.7337 318.756C66.0278 318.608 66.2725 318.413 66.4492 318.185C66.626 317.958 66.7303 317.703 66.7542 317.442V300.401C66.734 300.137 66.6293 299.88 66.4485 299.652C66.2677 299.423 66.0161 299.23 65.7141 299.087L61.6321 297.383C61.3099 297.262 60.9535 297.199 60.592 297.199C60.2306 297.199 59.8742 297.262 59.5519 297.383Z" fill="#006D6C"/>
<path opacity="0.4" d="M59.5519 297.383L18.0653 314.972C17.7633 315.115 17.5116 315.309 17.3309 315.537C17.1501 315.766 17.0453 316.023 17.0251 316.286V333.327C17.0453 333.591 17.1501 333.848 17.3309 334.076C17.5116 334.305 17.7633 334.498 18.0653 334.642L22.1668 336.346C22.474 336.451 22.809 336.506 23.1481 336.506C23.4872 336.506 23.8221 336.451 24.1293 336.346L65.7337 318.756C66.0278 318.608 66.2725 318.413 66.4492 318.185C66.626 317.958 66.7303 317.703 66.7542 317.442V300.401C66.734 300.137 66.6293 299.88 66.4485 299.652C66.2677 299.423 66.0161 299.23 65.7141 299.087L61.6321 297.383C61.3099 297.262 60.9535 297.199 60.592 297.199C60.2306 297.199 59.8742 297.262 59.5519 297.383Z" fill="#103E13"/>
<path d="M66.7338 300.259C66.7338 299.884 66.2432 299.739 65.7134 299.956L24.2267 317.546C23.9276 317.695 23.6792 317.892 23.5005 318.123L17.3384 315.509C17.5104 315.291 17.7531 315.107 18.0449 314.975L59.5512 297.385C59.8748 297.268 60.2306 297.207 60.5913 297.207C60.952 297.207 61.3078 297.268 61.6314 297.385L65.7134 299.104C65.9886 299.229 66.2227 299.398 66.3991 299.597C66.5755 299.797 66.6898 300.023 66.7338 300.259Z" fill="#006D6C"/>
<path d="M65.7331 299.954L24.2268 317.543C23.9295 317.689 23.6825 317.884 23.5054 318.112C23.3282 318.34 23.2258 318.595 23.2063 318.858V335.942C23.2063 336.433 23.6577 336.621 24.2268 336.39L65.7331 318.756C66.0303 318.611 66.2773 318.416 66.4545 318.188C66.6316 317.96 66.734 317.705 66.7536 317.442V300.401C66.7536 299.91 66.4003 299.723 65.7331 299.954Z" fill="#006D6C"/>
<g opacity="0.2">
<path opacity="0.2" d="M65.7331 299.954L24.2268 317.543C23.9295 317.689 23.6825 317.884 23.5054 318.112C23.3282 318.34 23.2258 318.595 23.2063 318.858V335.942C23.2063 336.433 23.6577 336.621 24.2268 336.39L65.7331 318.756C66.0303 318.611 66.2773 318.416 66.4545 318.188C66.6316 317.96 66.734 317.705 66.7536 317.442V300.401C66.7536 299.91 66.4003 299.723 65.7331 299.954Z" fill="#103E13"/>
</g>
<path d="M34.2559 321.565C34.2559 321.695 34.2559 321.883 34.2559 322.114V323.558C34.2559 323.804 34.2559 323.977 34.2559 324.107C34.2731 324.311 34.3125 324.514 34.3737 324.714C34.4312 324.871 34.5314 325.019 34.6681 325.147C34.8053 325.247 34.9859 325.308 35.1783 325.32C35.4449 325.307 35.702 325.242 35.9241 325.132C36.2033 325.019 36.4552 324.873 36.6698 324.699C36.8521 324.546 37.0163 324.382 37.1604 324.208C37.2734 324.046 37.3654 323.877 37.4352 323.703C37.4352 323.529 37.5529 323.385 37.5921 323.241C37.6232 323.108 37.6691 322.978 37.7295 322.851C37.7965 322.75 37.907 322.669 38.0435 322.62L39.7705 321.883C39.8014 321.866 39.8394 321.856 39.8784 321.856C39.9175 321.856 39.9554 321.866 39.9864 321.883C39.9864 321.883 39.9864 321.984 39.9864 322.071C39.9781 322.609 39.8658 323.144 39.6527 323.659C39.4433 324.196 39.1537 324.715 38.7893 325.205C38.4211 325.683 37.98 326.129 37.4744 326.533C37.0131 326.928 36.4619 327.26 35.8456 327.515C35.3417 327.758 34.7592 327.897 34.1578 327.92C33.6926 327.924 33.2405 327.806 32.8822 327.588C32.494 327.331 32.2089 327.002 32.058 326.634C31.856 326.167 31.7437 325.681 31.7244 325.19C31.7244 324.786 31.7244 324.353 31.7244 323.876C31.7244 323.399 31.7244 322.952 31.7244 322.519C31.7501 321.943 31.862 321.372 32.058 320.814C32.301 320.245 32.6302 319.698 33.0392 319.183C33.3806 318.664 33.8092 318.179 34.3148 317.738C34.8026 317.321 35.3793 316.965 36.0222 316.684C36.5157 316.461 37.0739 316.328 37.651 316.294C38.112 316.261 38.5748 316.343 38.9659 316.525C39.3577 316.719 39.6592 316.996 39.8294 317.32C40.0621 317.731 40.1758 318.174 40.163 318.619C40.1908 318.71 40.1908 318.803 40.163 318.894C40.1125 318.968 40.0384 319.032 39.9471 319.081L38.2201 319.818C38.0631 319.818 37.965 319.818 37.9061 319.818C37.8373 319.734 37.7906 319.641 37.7688 319.544C37.7688 319.442 37.7688 319.327 37.6118 319.211C37.5597 319.106 37.4635 319.015 37.337 318.951C37.1869 318.891 37.0175 318.861 36.8464 318.865C36.5824 318.887 36.328 318.951 36.1007 319.053C35.8189 319.175 35.5669 319.331 35.3549 319.515C35.1552 319.703 34.9841 319.906 34.8447 320.121C34.7232 320.342 34.6248 320.569 34.5503 320.8C34.429 321.05 34.3306 321.306 34.2559 321.565Z" fill="#F5F7FA"/>
<path d="M46.4232 319.57V322.04C46.4504 322.15 46.4504 322.262 46.4232 322.372C46.3705 322.466 46.2819 322.546 46.168 322.603L44.4999 323.311C44.4644 323.333 44.4191 323.345 44.3724 323.345C44.3256 323.345 44.2803 323.333 44.2448 323.311C44.2227 323.272 44.2113 323.23 44.2113 323.188C44.2113 323.146 44.2227 323.104 44.2448 323.065V320.596L42.2823 321.462C42.2658 321.475 42.246 321.485 42.2241 321.492C42.2022 321.499 42.1786 321.502 42.1548 321.502C42.1309 321.502 42.1073 321.499 42.0854 321.492C42.0635 321.485 42.0437 321.475 42.0272 321.462C41.9896 321.388 41.9896 321.306 42.0272 321.231V319.715C41.9976 319.605 41.9976 319.492 42.0272 319.383C42.0798 319.289 42.1685 319.209 42.2823 319.152L44.2448 318.285V315.714C44.2097 315.605 44.2097 315.492 44.2448 315.382C44.2976 315.293 44.3867 315.217 44.4999 315.166L46.168 314.444C46.2061 314.426 46.2504 314.416 46.2956 314.416C46.3408 314.416 46.3851 314.426 46.4232 314.444C46.4605 314.523 46.4605 314.61 46.4232 314.689V317.159L48.3856 316.292C48.4237 316.274 48.468 316.265 48.5132 316.265C48.5584 316.265 48.6027 316.274 48.6407 316.292C48.6793 316.326 48.708 316.365 48.7249 316.407C48.7418 316.45 48.7465 316.494 48.7389 316.538V318.054C48.7441 318.169 48.7104 318.283 48.6407 318.386C48.5824 318.477 48.4949 318.557 48.3856 318.617L46.4232 319.57Z" fill="#F5F7FA"/>
<path d="M55.2147 315.832V318.316C55.2101 318.432 55.1699 318.546 55.0969 318.648C55.0449 318.734 54.9639 318.809 54.8614 318.865L53.1737 319.573C53.159 319.585 53.1409 319.595 53.1206 319.602C53.1003 319.608 53.0782 319.612 53.056 319.612C53.0337 319.612 53.0117 319.608 52.9914 319.602C52.9711 319.595 52.9529 319.585 52.9382 319.573C52.8966 319.543 52.8645 319.507 52.8441 319.467C52.8238 319.427 52.8157 319.384 52.8205 319.342V316.858L50.858 317.739C50.8225 317.761 50.7772 317.773 50.7304 317.773C50.6837 317.773 50.6384 317.761 50.6029 317.739C50.5608 317.706 50.5286 317.667 50.5083 317.625C50.488 317.583 50.4801 317.538 50.4851 317.493V315.977C50.4897 315.861 50.53 315.747 50.6029 315.645C50.6491 315.552 50.7399 315.475 50.858 315.428L52.8205 314.547V312.078C52.8195 311.961 52.8601 311.847 52.9382 311.745C52.9845 311.653 53.0663 311.573 53.1737 311.514L54.8614 310.807C54.8762 310.794 54.8943 310.785 54.9146 310.778C54.9349 310.771 54.9569 310.768 54.9792 310.768C55.0015 310.768 55.0235 310.771 55.0438 310.778C55.0641 310.785 55.0822 310.794 55.0969 310.807C55.1385 310.836 55.1707 310.873 55.191 310.912C55.2114 310.952 55.2195 310.995 55.2147 311.038V313.522L57.1772 312.655C57.1937 312.643 57.2134 312.632 57.2354 312.626C57.2573 312.619 57.2809 312.615 57.3047 312.615C57.3286 312.615 57.3521 312.619 57.3741 312.626C57.396 312.632 57.4158 312.643 57.4323 312.655C57.4713 312.735 57.4713 312.821 57.4323 312.901V314.345C57.4594 314.45 57.4594 314.558 57.4323 314.663C57.3797 314.756 57.291 314.837 57.1772 314.894L55.2147 315.832Z" fill="#F5F7FA"/>
</g>
<defs>
<filter id="filter0_d_875_696" x="0" y="0" width="444" height="427.252" filterUnits="userSpaceOnUse" color-interpolation-filters="sRGB">
<feFlood flood-opacity="0" result="BackgroundImageFix"/>
<feColorMatrix in="SourceAlpha" type="matrix" values="0 0 0 0 0 0 0 0 0 0 0 0 0 0 0 0 0 0 127 0" result="hardAlpha"/>
<feOffset dy="10"/>
<feGaussianBlur stdDeviation="5"/>
<feComposite in2="hardAlpha" operator="out"/>
<feColorMatrix type="matrix" values="0 0 0 0 0 0 0 0 0 0 0 0 0 0 0 0 0 0 0.5 0"/>
<feBlend mode="normal" in2="BackgroundImageFix" result="effect1_dropShadow_875_696"/>
<feBlend mode="normal" in="SourceGraphic" in2="effect1_dropShadow_875_696" result="shape"/>
</filter>
</defs>
</svg>
