<svg width="581" height="598" viewBox="0 0 581 598" fill="none" xmlns="http://www.w3.org/2000/svg">
<path d="M499.709 577.476C544.605 577.476 581 556.704 581 531.08C581 505.456 544.605 484.684 499.709 484.684C454.813 484.684 418.417 505.456 418.417 531.08C418.417 556.704 454.813 577.476 499.709 577.476Z" fill="#E0E0E0"/>
<path d="M220.358 597.94C219.025 597.926 217.737 597.46 216.709 596.621C215.681 595.781 214.976 594.619 214.71 593.328L213.396 586.491C210.43 585.955 207.5 585.242 204.622 584.356H204.396L192.224 589.939C191.224 590.366 190.138 590.563 189.05 590.514C187.961 590.465 186.898 590.171 185.942 589.655L173.86 582.729C173.131 582.342 172.516 581.775 172.074 581.083C171.632 580.392 171.378 579.599 171.337 578.782C171.296 577.965 171.469 577.151 171.84 576.42C172.21 575.689 172.766 575.064 173.453 574.608L180.792 569.383C180.126 568.506 179.515 567.589 178.965 566.636L163.501 565.681C162.097 565.594 160.779 564.982 159.815 563.971C158.85 562.959 158.311 561.622 158.306 560.232V551.275C158.307 549.885 158.842 548.547 159.804 547.532C160.766 546.518 162.082 545.903 163.486 545.812L178.95 544.841C179.5 543.894 180.111 542.982 180.777 542.11L173.407 536.929C172.721 536.473 172.165 535.849 171.794 535.117C171.424 534.386 171.25 533.572 171.291 532.755C171.332 531.938 171.586 531.145 172.028 530.454C172.471 529.763 173.086 529.196 173.815 528.809L185.896 521.882C186.948 521.301 188.135 521.003 189.339 521.016C190.318 521.002 191.287 521.201 192.179 521.598L204.365 527.181H204.516C207.43 526.288 210.395 525.57 213.396 525.032L214.71 518.195C214.973 516.902 215.678 515.738 216.707 514.898C217.735 514.059 219.024 513.594 220.358 513.582H238.193C239.526 513.597 240.814 514.062 241.841 514.902C242.869 515.741 243.575 516.903 243.841 518.195L245.155 525.032C248.113 525.569 251.038 526.277 253.913 527.152H254.14L266.327 521.568C267.214 521.173 268.178 520.974 269.151 520.986C270.36 520.971 271.553 521.27 272.609 521.852L284.69 528.779C285.417 529.167 286.03 529.734 286.471 530.425C286.912 531.115 287.166 531.906 287.208 532.722C287.251 533.537 287.08 534.35 286.713 535.082C286.346 535.813 285.795 536.439 285.113 536.9L277.759 542.124C278.426 542.999 279.042 543.911 279.601 544.856L295.065 545.827C296.469 545.917 297.785 546.533 298.747 547.547C299.708 548.562 300.244 549.9 300.245 551.29V560.247C300.24 561.636 299.704 562.973 298.743 563.986C297.781 565 296.467 565.616 295.065 565.711L279.601 566.666C279.045 567.619 278.43 568.536 277.759 569.413L285.113 574.638C285.795 575.098 286.346 575.724 286.713 576.456C287.08 577.187 287.251 578 287.208 578.816C287.166 579.631 286.912 580.422 286.471 581.112C286.03 581.803 285.417 582.37 284.69 582.759L272.609 589.685C271.55 590.261 270.359 590.559 269.151 590.551C268.179 590.556 267.216 590.357 266.327 589.969L254.14 584.386H253.989C251.081 585.284 248.121 586.007 245.124 586.55L243.811 593.372C243.548 594.667 242.843 595.832 241.815 596.675C240.787 597.517 239.498 597.985 238.163 598L220.358 597.94ZM229.283 547.663C222.833 547.513 216.453 549.003 210.753 551.992C206.6 554.365 204.214 557.396 204.214 560.337C204.214 563.277 206.6 566.308 210.753 568.681C216.508 571.528 222.855 573.01 229.29 573.01C235.726 573.01 242.073 571.528 247.828 568.681C251.98 566.308 254.351 563.277 254.351 560.337C254.351 557.396 251.98 554.365 247.828 551.992C242.122 549.005 235.737 547.515 229.283 547.663Z" fill="#E0E0E0"/>
<path d="M287.102 342.439L282.043 339.558C280.119 338.594 277.993 338.092 275.836 338.092C273.68 338.092 271.553 338.594 269.63 339.558L2.5597 492.048C-0.853234 493.989 -0.853234 497.183 2.5597 499.124L7.6036 502.005C9.52991 502.969 11.6587 503.471 13.8179 503.471C15.977 503.471 18.1058 502.969 20.0321 502.005L101.157 455.728L134.033 474.478C143.336 479.792 158.573 479.792 167.876 474.478L223.842 442.532C231.785 438.053 231.785 430.589 223.842 426.111L188.519 405.794L287.117 349.53C290.515 347.574 290.515 344.395 287.102 342.439Z" fill="#E0E0E0"/>
<g opacity="0.1">
<path opacity="0.1" d="M297.446 83.8563L55.8225 221.747V356.89C55.8046 357.673 56.0256 358.443 56.4568 359.099C56.6009 359.335 56.8018 359.532 57.0415 359.673C57.2813 359.814 57.5525 359.893 57.831 359.905C58.1778 359.898 58.5165 359.8 58.8126 359.622L303.2 220.03V87.1703C303.2 83.498 300.618 82.0351 297.446 83.8563Z" fill="#103E13"/>
</g>
<path d="M172.935 466.536L219.236 440.084C224.008 437.352 226.394 433.784 226.394 430.216C226.394 426.649 226.394 423.842 226.394 423.842L182.811 399.405C181.471 398.537 180.356 397.371 179.556 395.999C178.756 394.627 178.294 393.089 178.205 391.508V335.08L97.3669 381.282V437.71C97.4444 439.283 97.8947 440.816 98.6817 442.185C99.4687 443.554 100.57 444.721 101.897 445.592L138.292 466.492C147.912 471.985 163.391 471.985 172.935 466.536Z" fill="#37474F"/>
<path d="M116.772 447.698V454.042L101.958 445.593C100.618 444.725 99.503 443.559 98.703 442.187C97.9029 440.815 97.4401 439.277 97.3518 437.696V381.283L112.755 372.49C113.088 376.357 113.42 380.357 113.752 384.254L102.939 390.434V434.516C103.012 436.092 103.46 437.629 104.248 439.001C105.035 440.373 106.139 441.543 107.47 442.413L116.772 447.698Z" fill="#263238"/>
<path d="M102.939 434.532C103.019 436.106 103.471 437.64 104.257 439.011C105.044 440.382 106.144 441.553 107.47 442.428L138.277 460.178C147.836 465.627 163.315 465.627 172.859 460.178L219.176 433.725C228.735 428.277 228.735 419.439 219.176 413.991L188.338 396.226C186.995 395.362 185.878 394.196 185.077 392.824C184.277 391.451 183.816 389.911 183.732 388.329V344.262L102.939 390.434V434.532Z" fill="#455A64"/>
<path opacity="0.15" d="M197.807 401.585L188.429 396.226C187.086 395.362 185.968 394.196 185.168 392.824C184.367 391.451 183.907 389.911 183.823 388.329V344.262L102.939 390.434V434.532C103.019 436.106 103.471 437.64 104.257 439.011C105.044 440.382 106.144 441.553 107.47 442.428L116.697 447.683L197.807 401.585Z" fill="#103E13"/>
<path d="M6.59157 469.328C8.34011 470.163 10.2629 470.579 12.2044 470.543C14.1458 470.507 16.0513 470.019 17.7667 469.119C57.5289 446.429 244.093 339.947 283.855 317.271C285.529 316.187 286.922 314.729 287.921 313.015C288.92 311.301 289.498 309.379 289.609 307.404V87.1408C289.689 85.19 289.227 83.2547 288.273 81.5451C287.319 79.8355 285.91 78.4167 284.198 77.4429C282.486 76.4691 280.537 75.9775 278.562 76.0212C276.588 76.065 274.663 76.6426 272.997 77.6914L6.954 229.539C5.29137 230.63 3.91038 232.091 2.92171 233.805C1.93304 235.518 1.36419 237.437 1.26074 239.407V459.67C1.32519 461.579 1.84087 463.447 2.76654 465.124C3.69221 466.802 5.00216 468.241 6.59157 469.328Z" fill="#37474F"/>
<path d="M17.7667 469.12L283.855 317.257C285.531 316.175 286.926 314.718 287.926 313.003C288.925 311.289 289.502 309.365 289.609 307.389V87.1412C289.609 83.4988 287.026 82.0358 283.855 83.857L17.7667 235.705C16.0903 236.787 14.6957 238.244 13.696 239.958C12.6962 241.673 12.1197 243.596 12.013 245.572V465.835C11.9979 469.463 14.5803 470.926 17.7667 469.12Z" fill="#455A64"/>
<path d="M19.6243 439.262V248.183C19.6912 246.97 20.0459 245.789 20.6598 244.736C21.2736 243.683 22.1294 242.788 23.158 242.122L278.449 96.4246C280.397 95.305 281.983 96.2156 281.983 98.4399V289.519C281.916 290.736 281.56 291.921 280.944 292.976C280.327 294.032 279.467 294.929 278.434 295.594L23.158 441.292C21.2099 442.397 19.6243 441.501 19.6243 439.262Z" fill="#006D6C"/>
<path opacity="0.75" d="M19.6243 439.262V248.183C19.6912 246.97 20.0459 245.789 20.6598 244.736C21.2736 243.683 22.1294 242.788 23.158 242.122L278.449 96.4246C280.397 95.305 281.983 96.2156 281.983 98.4399V289.519C281.916 290.736 281.56 291.921 280.944 292.976C280.327 294.032 279.467 294.929 278.434 295.594L23.158 441.292C21.2099 442.397 19.6243 441.501 19.6243 439.262Z" fill="white"/>
<path d="M2.89201 233.793L13.7047 239.958C12.6736 241.666 12.0872 243.599 11.9982 245.586V465.834C11.9982 469.148 14.2785 470.999 17.767 469.118C16.0551 470.028 14.1484 470.522 12.205 470.558C10.2616 470.595 8.3374 470.173 6.59188 469.327C5.01058 468.394 3.68868 467.087 2.745 465.523C1.80132 463.96 1.26545 462.189 1.18555 460.371V239.436C1.26178 237.442 1.84896 235.501 2.89201 233.793Z" fill="#263238"/>
<path d="M139.047 384.716L162.56 371.28C163.738 370.623 164.674 371.086 164.674 372.34C164.621 373.041 164.403 373.72 164.035 374.321C163.668 374.923 163.163 375.431 162.56 375.803L139.047 389.239C137.884 389.91 136.933 389.433 136.933 388.194C136.983 387.49 137.201 386.809 137.569 386.204C137.936 385.6 138.443 385.09 139.047 384.716Z" fill="#006D6C"/>
<path d="M419.104 100.307L392.661 115.414C392.388 115.595 392.161 115.836 391.998 116.118C391.836 116.401 391.742 116.717 391.725 117.041V148.987C391.741 149.31 391.836 149.623 392.002 149.901C392.168 150.18 392.399 150.414 392.676 150.585L396.421 152.704C396.718 152.848 397.043 152.923 397.373 152.923C397.703 152.923 398.028 152.848 398.324 152.704L424.767 137.582C425.04 137.405 425.267 137.167 425.43 136.886C425.592 136.606 425.686 136.293 425.703 135.97V104.024C425.685 103.7 425.59 103.385 425.424 103.104C425.259 102.824 425.028 102.587 424.752 102.412L421.082 100.292C420.776 100.135 420.436 100.054 420.091 100.057C419.746 100.059 419.407 100.145 419.104 100.307Z" fill="#333333"/>
<path d="M398.324 152.69C398.027 152.83 397.702 152.903 397.373 152.903C397.044 152.903 396.718 152.83 396.421 152.69L392.676 150.57C392.399 150.399 392.168 150.165 392.002 149.887C391.836 149.609 391.741 149.295 391.725 148.973V117.027C391.739 116.688 391.843 116.358 392.027 116.071L397.66 119.266C397.479 119.564 397.373 119.893 397.373 119.385V151.331C397.373 152.69 397.765 153.003 398.324 152.69Z" fill="#333333"/>
<path opacity="0.4" d="M425.688 103.92C425.612 103.442 425.235 103.278 424.767 103.547L398.324 118.669C398.048 118.84 397.82 119.076 397.659 119.355L392.011 116.161C392.177 115.889 392.404 115.659 392.676 115.489L419.119 100.367C419.411 100.22 419.735 100.144 420.063 100.144C420.391 100.144 420.714 100.22 421.006 100.367L424.752 102.472C425.006 102.63 425.222 102.842 425.384 103.092C425.545 103.343 425.649 103.625 425.688 103.92Z" fill="white"/>
<path d="M389.143 140.732C388.538 140.374 384.023 137.866 383.887 137.746C383.776 137.68 383.68 137.591 383.608 137.484C383.536 137.377 383.488 137.255 383.47 137.128C383.451 137.001 383.461 136.871 383.499 136.748C383.537 136.625 383.603 136.512 383.691 136.418L391.725 127.312L397.373 130.521L388.976 139.388C388.887 139.482 388.819 139.595 388.779 139.718C388.738 139.84 388.725 139.97 388.741 140.099C388.757 140.227 388.801 140.35 388.87 140.459C388.94 140.569 389.033 140.662 389.143 140.732Z" fill="#37474F"/>
<path opacity="0.4" d="M389.143 140.732C388.538 140.374 384.023 137.866 383.887 137.746C383.776 137.68 383.68 137.591 383.608 137.484C383.536 137.377 383.488 137.255 383.47 137.128C383.451 137.001 383.461 136.871 383.499 136.748C383.537 136.625 383.603 136.512 383.691 136.418L391.725 127.312L397.373 130.521L388.976 139.388C388.887 139.482 388.819 139.595 388.779 139.718C388.738 139.84 388.725 139.97 388.741 140.099C388.757 140.227 388.801 140.35 388.87 140.459C388.94 140.569 389.033 140.662 389.143 140.732Z" fill="white"/>
<path d="M424.767 103.472L398.324 118.594C398.047 118.769 397.817 119.006 397.651 119.286C397.486 119.567 397.39 119.882 397.373 120.206V130.551L388.976 139.418C388.837 139.527 388.735 139.676 388.686 139.845C388.637 140.014 388.643 140.194 388.703 140.359C388.763 140.524 388.875 140.666 389.021 140.765C389.168 140.865 389.342 140.916 389.52 140.911L397.373 140.344V152.212C397.373 152.809 397.795 153.048 398.324 152.749L424.767 137.627C425.04 137.45 425.267 137.211 425.429 136.931C425.592 136.651 425.686 136.337 425.703 136.015V104.069C425.703 103.412 425.28 103.173 424.767 103.472Z" fill="#37474F"/>
<path d="M419.572 131.821L414.15 127.805L419.738 117.236C419.988 116.765 420.039 116.215 419.879 115.707C419.719 115.199 419.361 114.774 418.885 114.527C418.408 114.28 417.852 114.229 417.338 114.388C416.824 114.546 416.394 114.899 416.144 115.37L410.858 125.357L406.026 121.745C405.814 121.586 405.572 121.47 405.314 121.404C405.057 121.337 404.789 121.321 404.525 121.358C404.261 121.394 404.007 121.481 403.778 121.614C403.548 121.747 403.347 121.923 403.187 122.133C403.026 122.343 402.909 122.582 402.842 122.836C402.774 123.091 402.759 123.356 402.795 123.616C402.831 123.877 402.92 124.128 403.054 124.355C403.189 124.582 403.367 124.78 403.579 124.939L408.955 128.955L403.594 139.076C403.345 139.549 403.295 140.101 403.456 140.611C403.618 141.12 403.977 141.545 404.455 141.793C404.745 141.939 405.066 142.016 405.391 142.017C405.762 142.017 406.125 141.918 406.442 141.728C406.759 141.539 407.017 141.267 407.189 140.942L412.233 131.418L417.08 135.031C417.51 135.348 418.049 135.486 418.58 135.413C419.112 135.34 419.593 135.063 419.919 134.642C420.25 134.222 420.399 133.69 420.334 133.161C420.269 132.632 419.995 132.151 419.572 131.821Z" fill="#F5F7FA"/>
<path d="M543.246 513.359C544.318 515.448 544.799 517.785 544.636 520.122C544.53 522.167 543.291 524.824 543.85 529.437C544.409 534.05 545.481 535.513 545.98 538.767C546.272 540.26 546.261 541.796 545.948 543.285C545.634 544.774 545.024 546.186 544.152 547.44C542.219 550.545 537.961 553.008 529.534 552.71C522.738 552.471 519.99 549.022 519.839 545.066L543.246 513.359Z" fill="#263238"/>
<path d="M541.313 503.837C541.522 504.695 541.659 505.569 541.721 506.449C541.978 508.017 542.446 509.435 542.823 511.032C542.929 511.435 543.02 511.838 543.11 512.241C543.76 515.332 543.11 518.526 543.11 521.676C543.371 525.398 544.034 529.081 545.089 532.663C546.599 539.201 546.856 543.575 541.072 548.099C538.051 550.487 534.684 550.562 530.818 550.666C527.845 550.769 524.9 550.067 522.301 548.636C519.824 546.83 519.854 545.307 519.839 544.725C519.612 537.783 522.15 529.707 522.663 522.781C522.854 520.916 522.894 519.039 522.784 517.168C522.542 514.869 521.742 512.585 521.485 510.271C521.305 509.409 521.416 508.512 521.802 507.718C522.193 507.28 522.674 506.929 523.213 506.689C523.752 506.45 524.337 506.327 524.928 506.33C527.948 505.927 531.09 505.628 534.185 505.404C534.913 505.268 535.667 505.418 536.285 505.822C536.889 506.36 536.904 507.315 537.07 508.047C537.236 508.778 537.81 509.719 538.58 509.539C538.835 509.458 539.059 509.304 539.226 509.097C539.393 508.89 539.493 508.639 539.516 508.375C539.592 507.868 539.818 503.897 539.803 503.314C539.864 503.344 540.951 503.18 541.313 503.837Z" fill="#37474F"/>
<path d="M439.046 526.869C438.549 528.095 438.549 529.464 439.046 530.69C439.544 531.825 445.298 535.348 453.256 535.169C459.146 534.982 464.879 533.251 469.868 530.153C472.964 528.287 476.135 528.048 480.077 527.973C484.018 527.899 488.639 526.48 489.983 524.734C490.489 523.023 490.489 521.205 489.983 519.494L439.046 526.869Z" fill="#263238"/>
<path d="M467.86 503.626C467.554 504.187 467.282 504.766 467.044 505.358C466.068 507.491 464.562 509.345 462.665 510.747C459.919 512.625 456.971 514.197 453.876 515.434C451.912 516.3 449.859 516.539 447.835 517.226C445.592 517.935 443.431 518.876 441.387 520.032C438.185 521.973 437.581 527.183 441.039 529.392C444.06 531.288 452.018 533.542 460.566 531.512C465.232 530.407 470.533 525.735 476.603 525.541C480.454 525.406 487.778 524.63 490.376 521.838C491.327 517.673 490.285 516.494 489.424 512.882C488.964 510.883 488.721 508.841 488.7 506.791C488.7 505.716 489.424 502.626 487.189 502.312L486.963 504.626C486.963 504.626 486.525 505.403 484.139 505.821C483.369 505.955 482.765 506.955 482.357 507.866C481.949 508.776 481.693 509.478 480.847 509.463C480.583 509.426 480.334 509.322 480.124 509.159C479.915 508.996 479.752 508.782 479.654 508.537C479.472 508.051 479.325 507.552 479.216 507.045C478.91 506.231 478.429 505.493 477.806 504.882C477.183 504.271 476.432 503.802 475.607 503.507C474.237 503.049 472.818 502.754 471.378 502.626C470.291 502.462 469.385 501.999 468.358 502.925C468.161 503.136 467.994 503.372 467.86 503.626Z" fill="#37474F"/>
<path d="M529.821 326.073C531.331 348.868 532.131 362.139 536.254 424.344C539.288 434.99 541.216 445.915 542.008 456.947C542.823 470.711 544.801 512.181 544.801 512.181C544.801 512.181 533.581 521.287 520.639 517.077C520.639 517.077 508.89 456.111 504.783 437.093C500.856 418.836 497.836 398.877 497.836 398.877L494.921 424.344C494.921 424.344 495.435 435.675 495.072 452.588C494.891 461.635 490.542 510.598 490.542 510.598C490.542 510.598 474.791 517.674 464.16 508.583C464.16 508.583 463.389 429.181 463.223 421C463.042 411.656 464.733 317.684 464.733 317.684L529.821 326.073Z" fill="#455A64"/>
<path d="M497.776 398.892L489.726 357.198C489.726 357.198 477.283 356.123 470.412 349.256C470.412 349.256 471.635 355.988 487.28 360.019L495.057 398.414L494.921 424.344L497.776 398.892Z" fill="#37474F"/>
<path d="M544.439 504.702C539.656 508.796 533.504 510.988 527.178 510.852C527.178 510.852 537.901 509.27 544.334 502.283L544.439 504.702Z" fill="#37474F"/>
<path d="M491.041 504.822C491.041 504.822 480.062 508.614 470.805 505.718C470.805 505.718 477.948 510.465 490.875 506.569L491.041 504.822Z" fill="#37474F"/>
<path d="M375.242 241.254C375.164 240.897 375.009 240.561 374.789 240.268C374.405 239.58 374.211 238.803 374.227 238.017C374.243 237.231 374.468 236.463 374.879 235.79C375.146 235.461 375.37 235.1 375.544 234.715C375.846 233.894 375.468 232.969 375.544 232.088C375.816 228.162 383.004 229.878 385.284 230.595C385.949 230.819 389.815 231.804 391.325 232.327C391.19 230.172 391.404 228.01 391.959 225.922C392.986 221.847 396.384 222.265 396.58 224.758C396.767 227.015 397.192 229.246 397.849 231.416C398.272 233.013 399.359 234.596 399.978 236.954C400.869 239.94 400.643 241.612 403.663 244.418C408.193 248.643 431.45 264.228 431.45 264.228C437.249 260.541 459.689 246.896 468.101 242.388C476.241 238.014 480.394 241.537 480.394 241.537L473.296 267.378C473.296 267.378 445.313 281.649 435.225 286.008C428.188 288.993 425.077 287.321 417.315 280.484C411.153 274.722 403.029 266.392 394.255 258.719C390.751 255.644 388.214 254.077 385.737 253.957C384.801 253.957 383.865 253.853 382.944 253.763C380.86 253.524 378.413 253.017 377.401 250.972C377.054 250.285 376.888 249.479 376.601 248.792C376.163 247.688 375.468 246.702 375.091 245.598C374.78 244.857 374.675 244.048 374.789 243.254C374.789 242.612 375.332 241.97 375.242 241.254Z" fill="#E8F5E9"/>
<path d="M481.874 239.551C474.715 239.551 471.937 239.551 462.846 244.656C453.755 249.762 436.025 261.361 436.025 261.361C436.025 261.361 443.969 265.735 445.554 281.26L474.247 267.944L481.874 239.551Z" fill="#455A64"/>
<path d="M388.561 234.699C390.932 235.266 391.672 236.744 391.838 240.043C391.929 241.999 392.759 245.567 395.01 246.866C393.968 246.828 392.962 246.48 392.125 245.865C391.038 244.895 390.751 244.806 390.222 245.432C389.832 245.853 389.345 246.176 388.803 246.373C389.192 246.758 389.444 247.256 389.523 247.794C389.602 248.332 389.503 248.881 389.241 249.359C388.32 251.12 383.683 251.463 379.757 249.777C379.757 249.777 386.054 251.269 387.308 249.239C388.561 247.209 385.179 245 382.777 244.507C382.777 244.507 388.818 245.507 389.603 243.522C390.389 241.536 387.821 240.238 384.257 239.596C384.257 239.596 389.241 240.148 389.966 238.431C390.237 237.747 390.244 236.989 389.985 236.3C389.726 235.611 389.219 235.042 388.561 234.699Z" fill="#C8E6C9"/>
<path d="M431.389 264.271C434.531 266.345 436.964 269.312 438.366 272.78C438.366 272.78 438.864 266.226 433.413 263.002L431.389 264.271Z" fill="#C8E6C9"/>
<path d="M463.873 265.078C464.764 247.508 471.922 240.417 481.874 239.551L504.239 238.059C510.28 239.447 525.985 242.432 525.985 242.432C532.494 244.358 537.07 261.137 535.544 270.691C534.019 280.245 530.833 287.53 529.942 303.608C530.198 318.834 530.425 321.85 530.425 327.821C516.516 336.554 479.155 338.375 464.462 329.612C464.462 329.612 464.205 314.893 463.903 305.518C463.389 289.441 463.571 271.124 463.873 265.078Z" fill="#006D6C"/>
<path d="M469.747 190.542C468.848 191.05 468.104 191.788 467.594 192.678C467.083 193.569 466.826 194.579 466.848 195.603C466.812 197.135 467.255 198.642 468.116 199.917C469.418 201.543 471.221 202.706 473.251 203.231C474.126 203.438 474.98 203.723 475.803 204.082C476.828 204.804 477.788 205.614 478.672 206.5C480.046 207.545 481.406 208.62 482.81 209.635C485.595 211.691 488.505 213.575 491.524 215.278C494.424 216.92 497.455 218.327 500.584 219.488C503.892 220.697 506.625 219.637 510.159 219.95L509.645 229.415C509.645 229.415 510.823 227.235 512.167 224.638C513.33 222.398 518.208 210.993 518.208 210.993C520.111 206.515 522.527 201.828 522.24 196.827C521.998 192.781 521.183 189.228 518.072 187.512C517.815 182.854 516.743 180.585 513.436 178.092C510.995 176.461 508.193 175.437 505.266 175.106C501.96 174.729 498.615 174.845 495.344 175.45C490.451 176.226 485.558 177.465 480.605 177.211C477.958 176.932 475.283 177.099 472.692 177.704C471.046 178.232 469.617 179.271 468.619 180.667C467.62 182.064 467.104 183.742 467.15 185.452C467.044 187.228 468.479 190.154 469.747 190.542Z" fill="#37474F"/>
<path d="M500.735 191.752C500.735 194.738 503.514 198.963 507.742 202.605C507.243 205.368 507.32 208.203 507.969 210.935C508.228 211.784 508.626 212.586 509.147 213.309C509.34 213.611 509.598 213.867 509.904 214.058C510.21 214.249 510.554 214.371 510.914 214.413C511.895 214.413 512.288 213.906 512.59 213.144C513.036 212.18 513.54 211.243 514.1 210.338C514.349 209.952 514.638 209.592 514.961 209.263C516.471 207.905 520.835 206.277 522.874 210.875C524.913 215.473 521.092 221.982 517.558 222.952C511.518 224.639 510.143 220.534 510.143 220.534L510.249 240.448C508.543 245.493 499.089 250.405 491.478 249.405C483.867 248.404 486.283 243.866 489.379 240.791L488.986 233.879C486.277 234.145 483.543 234.044 480.862 233.581C477.705 232.984 475.108 230.058 473.794 225.296C471.701 216.223 471.394 206.837 472.888 197.649C474.036 192.036 475.44 189.618 476.12 188.961C476.12 190.185 478.491 193.932 484.637 194.768C491.131 195.693 496.054 193.663 500.735 191.752Z" fill="#E8F5E9"/>
<path d="M488.956 233.909C494.574 233.401 499.135 232.64 502.306 230.923C504.631 229.714 506.64 225.937 507.244 224.594C507.244 224.594 507.093 229.759 503.967 232.625C499.557 236.671 489.122 236.671 489.122 236.671L488.956 233.909Z" fill="#C8E6C9"/>
<path d="M491.901 208.56C491.904 208.954 492.025 209.339 492.247 209.667C492.47 209.995 492.785 210.251 493.153 210.403C493.522 210.555 493.927 210.597 494.32 210.523C494.712 210.45 495.074 210.264 495.36 209.989C495.647 209.714 495.845 209.362 495.931 208.976C496.016 208.591 495.986 208.189 495.843 207.82C495.699 207.452 495.45 207.133 495.125 206.904C494.8 206.674 494.414 206.544 494.015 206.53C493.741 206.526 493.47 206.575 493.215 206.675C492.961 206.775 492.729 206.923 492.533 207.112C492.336 207.3 492.179 207.525 492.071 207.774C491.963 208.022 491.905 208.289 491.901 208.56Z" fill="#263238"/>
<path d="M492.641 201.976L497.58 203.992C497.837 203.325 497.823 202.586 497.542 201.93C497.26 201.273 496.733 200.749 496.069 200.469C495.745 200.337 495.397 200.272 495.046 200.278C494.696 200.283 494.35 200.358 494.03 200.499C493.709 200.64 493.421 200.843 493.183 201.097C492.944 201.351 492.76 201.65 492.641 201.976Z" fill="#263238"/>
<path d="M494.574 219.428L487.023 222.413C487.202 222.914 487.482 223.373 487.846 223.764C488.209 224.155 488.649 224.468 489.139 224.686C489.629 224.904 490.159 225.021 490.696 225.03C491.233 225.04 491.766 224.942 492.263 224.742C493.265 224.319 494.063 223.531 494.494 222.542C494.924 221.552 494.952 220.437 494.574 219.428Z" fill="#388E3B"/>
<path d="M490.18 224.666C490.173 224.79 490.173 224.915 490.18 225.039C490.888 225.152 491.615 225.07 492.279 224.8C493.04 224.479 493.687 223.941 494.139 223.255C494.59 222.57 494.826 221.767 494.816 220.949C494.548 220.89 494.275 220.86 494 220.859C492.984 220.867 492.013 221.272 491.297 221.985C490.581 222.698 490.18 223.662 490.18 224.666Z" fill="#C8E6C9"/>
<path d="M474.157 203.873L479.035 202.007C478.922 201.691 478.746 201.4 478.517 201.152C478.288 200.904 478.011 200.704 477.702 200.565C477.394 200.426 477.06 200.349 476.72 200.341C476.381 200.332 476.043 200.391 475.727 200.515C475.07 200.756 474.537 201.245 474.243 201.874C473.948 202.503 473.918 203.222 474.157 203.873Z" fill="#263238"/>
<path d="M475.41 208.128C475.394 208.399 475.432 208.67 475.523 208.927C475.614 209.183 475.756 209.419 475.94 209.62C476.124 209.822 476.347 209.985 476.596 210.1C476.845 210.216 477.114 210.281 477.388 210.292C477.812 210.322 478.235 210.226 478.603 210.016C478.971 209.806 479.267 209.492 479.453 209.115C479.639 208.737 479.706 208.313 479.647 207.898C479.587 207.482 479.403 207.093 479.118 206.782C478.834 206.47 478.461 206.25 478.049 206.149C477.637 206.049 477.203 206.072 476.804 206.217C476.406 206.362 476.06 206.621 475.811 206.961C475.563 207.302 475.423 207.708 475.41 208.128Z" fill="#263238"/>
<path d="M486.253 218.442L478.732 217.039L485.83 205.156L486.253 218.442Z" fill="#C8E6C9"/>
<path d="M527.284 242.791C536.692 244.403 542.386 247.389 544.802 254.733C548.23 265.183 557.819 294.785 559.798 305.31C561.006 311.773 562.893 315.864 557.351 320.118C544.144 329.565 530.355 338.19 516.064 345.944C503.499 352.452 484.532 353.736 484.532 353.736L498.289 345.511L500.736 340.898L537.508 308.698L523.614 268.124C523.614 268.124 520.111 247.269 527.284 242.791Z" fill="#E8F5E9"/>
<path d="M537.507 308.697C540.496 307.175 543.811 306.387 547.172 306.398C547.172 306.398 543.91 303.622 536.707 306.398L537.507 308.697Z" fill="#C8E6C9"/>
<path d="M525.985 242.432C530.289 243.223 535.046 243.686 539.425 246.432C543.805 249.179 544.605 252.508 547.973 262.764C551.34 273.019 555.312 288.141 555.312 288.141C555.312 288.141 547.067 295.038 532.871 295.232C532.871 295.232 525.879 276.05 524.158 271.78C522.436 267.511 518.102 253.747 525.985 242.432Z" fill="#455A64"/>
<path d="M510.823 334.584V335.867C510.837 336.5 510.683 337.126 510.375 337.681C510.068 338.237 509.618 338.703 509.071 339.032L474.791 359.603C474.235 359.912 473.608 360.074 472.971 360.074C472.334 360.074 471.707 359.912 471.151 359.603L406.577 324.641C406.019 324.332 405.552 323.884 405.221 323.343C404.89 322.801 404.707 322.184 404.69 321.551V320.686L472.933 357.677L510.823 334.584Z" fill="#006D6C"/>
<g opacity="0.5">
<path opacity="0.5" d="M510.823 334.584V335.867C510.837 336.5 510.683 337.126 510.375 337.681C510.068 338.237 509.618 338.703 509.071 339.032L474.791 359.603C474.235 359.912 473.608 360.074 472.971 360.074C472.334 360.074 471.707 359.912 471.151 359.603L406.577 324.641C406.019 324.332 405.552 323.884 405.221 323.343C404.89 322.801 404.707 322.184 404.69 321.551V320.686L472.933 357.677L510.823 334.584Z" fill="white"/>
</g>
<g opacity="0.1">
<path opacity="0.1" d="M510.823 334.584V335.867C510.837 336.5 510.683 337.126 510.375 337.681C510.068 338.237 509.618 338.703 509.071 339.032L474.791 359.603C474.235 359.912 473.608 360.074 472.971 360.074C472.334 360.074 471.707 359.912 471.151 359.603L406.577 324.641C406.019 324.332 405.552 323.884 405.221 323.343C404.89 322.801 404.707 322.184 404.69 321.551V320.686L472.933 357.677L510.823 334.584Z" fill="#103E13"/>
</g>
<path d="M404.675 320.686L441.991 298.293C442.322 298.106 442.697 298.008 443.078 298.008C443.459 298.008 443.834 298.106 444.165 298.293L510.612 334.3C510.684 334.342 510.743 334.402 510.785 334.474C510.826 334.546 510.848 334.628 510.848 334.71C510.848 334.793 510.826 334.875 510.785 334.947C510.743 335.019 510.684 335.079 510.612 335.121L472.934 357.737L404.675 320.686Z" fill="#006D6C"/>
<g opacity="0.85">
<path opacity="0.85" d="M404.675 320.686L441.991 298.293C442.322 298.106 442.697 298.008 443.078 298.008C443.459 298.008 443.834 298.106 444.165 298.293L510.612 334.3C510.684 334.342 510.743 334.402 510.785 334.474C510.826 334.546 510.848 334.628 510.848 334.71C510.848 334.793 510.826 334.875 510.785 334.947C510.743 335.019 510.684 335.079 510.612 335.121L472.934 357.737L404.675 320.686Z" fill="white"/>
</g>
<path d="M472.601 354.17L492.731 342.093L432.96 309.699L412.724 321.716L472.601 354.17Z" fill="#006D6C"/>
<g opacity="0.6">
<path opacity="0.6" d="M472.601 354.17L492.731 342.093L432.96 309.699L412.724 321.716L472.601 354.17Z" fill="white"/>
</g>
<path d="M482.508 321.939L482.13 322.163L472.269 328.09L454.268 318.327L453.891 318.133L464.129 311.982L482.508 321.939Z" fill="#006D6C"/>
<path d="M482.13 322.164L472.269 328.09L454.268 318.328L464.144 312.416L482.13 322.164Z" fill="#006D6C"/>
<g opacity="0.6">
<path opacity="0.6" d="M482.13 322.164L472.269 328.09L454.268 318.328L464.144 312.416L482.13 322.164Z" fill="white"/>
</g>
<path d="M472.918 357.677V360.066C472.281 360.086 471.65 359.937 471.091 359.633L406.577 324.641C406.019 324.332 405.552 323.884 405.221 323.343C404.89 322.801 404.707 322.184 404.69 321.551V320.686L472.918 357.677Z" fill="#006D6C"/>
<g opacity="0.03">
<path opacity="0.03" d="M472.918 357.677V360.066C472.281 360.086 471.65 359.937 471.091 359.633L406.577 324.641C406.019 324.332 405.552 323.884 405.221 323.343C404.89 322.801 404.707 322.184 404.69 321.551V320.686L472.918 357.677Z" fill="white"/>
</g>
<g opacity="0.2">
<path opacity="0.2" d="M472.918 357.677V360.066C472.281 360.086 471.65 359.937 471.091 359.633L406.577 324.641C406.019 324.332 405.552 323.884 405.221 323.343C404.89 322.801 404.707 322.184 404.69 321.551V320.686L472.918 357.677Z" fill="#103E13"/>
</g>
<path d="M471.907 358.227C471.31 358.474 470.664 358.583 470.017 358.547C469.371 358.51 468.742 358.33 468.177 358.018L403.905 323.176C403.342 322.868 402.855 322.44 402.479 321.924C402.104 321.408 401.848 320.816 401.73 320.19L393.877 279.377C393.856 279.144 393.856 278.909 393.877 278.675C393.863 278.112 393.962 277.55 394.17 277.025C394.377 276.5 394.688 276.02 395.086 275.615L461.804 311.831C462.217 312.05 462.576 312.359 462.853 312.733C463.13 313.108 463.318 313.539 463.405 313.995L471.907 358.227Z" fill="#006D6C"/>
<g opacity="0.4">
<path opacity="0.4" d="M471.907 358.227C471.31 358.474 470.664 358.583 470.017 358.547C469.371 358.51 468.742 358.33 468.177 358.018L403.905 323.176C403.342 322.868 402.855 322.44 402.479 321.924C402.104 321.408 401.848 320.816 401.73 320.19L393.877 279.377C393.856 279.144 393.856 278.909 393.877 278.675C393.863 278.112 393.962 277.55 394.17 277.025C394.377 276.5 394.688 276.02 395.086 275.615L461.804 311.831C462.217 312.05 462.576 312.359 462.853 312.733C463.13 313.108 463.318 313.539 463.405 313.995L471.907 358.227Z" fill="white"/>
</g>
<path d="M472.919 357.677L472.496 357.93C472.307 358.045 472.111 358.144 471.907 358.229L463.405 314.057C463.318 313.601 463.13 313.17 462.853 312.795C462.576 312.42 462.217 312.112 461.804 311.892L395.01 275.677C395.262 275.408 395.552 275.177 395.871 274.99L462.816 311.265C463.226 311.492 463.582 311.805 463.859 312.181C464.135 312.557 464.325 312.989 464.416 313.445L472.919 357.677Z" fill="#006D6C"/>
<g opacity="0.6">
<path opacity="0.6" d="M472.919 357.677L472.496 357.93C472.307 358.045 472.111 358.144 471.907 358.229L463.405 314.057C463.318 313.601 463.13 313.17 462.853 312.795C462.576 312.42 462.217 312.112 461.804 311.892L395.01 275.677C395.262 275.408 395.552 275.177 395.871 274.99L462.816 311.265C463.226 311.492 463.582 311.805 463.859 312.181C464.135 312.557 464.325 312.989 464.416 313.445L472.919 357.677Z" fill="white"/>
</g>
<path d="M462.786 312.714L463.782 312.117C464.098 312.504 464.315 312.959 464.417 313.446L472.919 357.678L472.496 357.931C472.308 358.046 472.111 358.145 471.907 358.23L463.405 314.058C463.309 313.568 463.097 313.107 462.786 312.714Z" fill="#006D6C"/>
<path opacity="0.5" d="M462.786 312.714L463.782 312.117C464.098 312.504 464.315 312.959 464.417 313.446L472.919 357.678L472.496 357.931C472.308 358.046 472.111 358.145 471.907 358.23L463.405 314.058C463.309 313.568 463.097 313.107 462.786 312.714Z" fill="white"/>
<path opacity="0.1" d="M462.786 312.714L463.782 312.117C464.098 312.504 464.315 312.959 464.417 313.446L472.919 357.678L472.496 357.931C472.308 358.046 472.111 358.145 471.907 358.23L463.405 314.058C463.309 313.568 463.097 313.107 462.786 312.714Z" fill="#103E13"/>
<path d="M435.316 321.193C434.242 317.789 431.884 314.924 428.732 313.192C425.636 311.52 423.537 312.356 424.065 315.102C424.594 317.849 427.538 321.402 430.649 323.089C433.76 324.776 435.844 323.925 435.316 321.193Z" fill="#455A64"/>
<path d="M512.077 330.971C508.482 333.464 503.635 331.448 498.863 332.016C494.091 332.583 490.013 333.747 486.178 333.643C482.342 333.538 480.469 334.3 483.157 337.33C485.845 340.36 493.532 338.614 495.616 339.539C496.209 339.882 496.716 340.354 497.098 340.918C497.48 341.483 497.727 342.127 497.82 342.8C497.913 343.473 497.85 344.158 497.636 344.804C497.421 345.449 497.061 346.038 496.582 346.526C494.332 349.108 509.388 344.122 511.397 341.062C513.405 338.002 514.795 331.359 512.077 330.971Z" fill="#E8F5E9"/>
</svg>
 
